<?xml version="1.0" encoding="UTF-8" standalone="no"?>
<!-- Created with Inkscape (http://www.inkscape.org/) -->

<svg
   xmlns:dc="http://purl.org/dc/elements/1.1/"
   xmlns:cc="http://creativecommons.org/ns#"
   xmlns:rdf="http://www.w3.org/1999/02/22-rdf-syntax-ns#"
   xmlns:svg="http://www.w3.org/2000/svg"
   xmlns="http://www.w3.org/2000/svg"
   xmlns:sodipodi="http://sodipodi.sourceforge.net/DTD/sodipodi-0.dtd"
   xmlns:inkscape="http://www.inkscape.org/namespaces/inkscape"
   width="210mm"
   height="297mm"
   viewBox="0 0 210 297"
   version="1.1"
   id="svg8"
   inkscape:version="0.92.5 (2060ec1f9f, 2020-04-08)"
   sodipodi:docname="singleJob.svg">
  <defs
     id="defs2">
    <marker
       inkscape:stockid="Arrow2Mend"
       orient="auto"
       refY="0.0"
       refX="0.0"
       id="Arrow2Mend"
       style="overflow:visible;"
       inkscape:isstock="true">
      <path
         id="path6005"
         style="fill-rule:evenodd;stroke-width:0.625;stroke-linejoin:round;stroke:#000000;stroke-opacity:1;fill:#000000;fill-opacity:1"
         d="M 8.7185878,4.0337352 L -2.2072895,0.016013256 L 8.7185884,-4.0017078 C 6.9730900,-1.6296469 6.9831476,1.6157441 8.7185878,4.0337352 z "
         transform="scale(0.6) rotate(180) translate(0,0)" />
    </marker>
    <marker
       inkscape:stockid="Arrow2Lend"
       orient="auto"
       refY="0.0"
       refX="0.0"
       id="Arrow2Lend"
       style="overflow:visible;"
       inkscape:isstock="true">
      <path
         id="path5999"
         style="fill-rule:evenodd;stroke-width:0.625;stroke-linejoin:round;stroke:#000000;stroke-opacity:1;fill:#000000;fill-opacity:1"
         d="M 8.7185878,4.0337352 L -2.2072895,0.016013256 L 8.7185884,-4.0017078 C 6.9730900,-1.6296469 6.9831476,1.6157441 8.7185878,4.0337352 z "
         transform="scale(1.1) rotate(180) translate(1,0)" />
    </marker>
    <marker
       inkscape:stockid="Arrow2Mend"
       orient="auto"
       refY="0"
       refX="0"
       id="Arrow2Mend-3"
       style="overflow:visible"
       inkscape:isstock="true">
      <path
         inkscape:connector-curvature="0"
         id="path6005-6"
         style="fill:#000000;fill-opacity:1;fill-rule:evenodd;stroke:#000000;stroke-width:0.625;stroke-linejoin:round;stroke-opacity:1"
         d="M 8.7185878,4.0337352 -2.2072895,0.01601326 8.7185884,-4.0017078 c -1.7454984,2.3720609 -1.7354408,5.6174519 -6e-7,8.035443 z"
         transform="scale(-0.6)" />
    </marker>
    <marker
       inkscape:stockid="Arrow2Mend"
       orient="auto"
       refY="0"
       refX="0"
       id="Arrow2Mend-5"
       style="overflow:visible"
       inkscape:isstock="true">
      <path
         inkscape:connector-curvature="0"
         id="path6005-3"
         style="fill:#000000;fill-opacity:1;fill-rule:evenodd;stroke:#000000;stroke-width:0.625;stroke-linejoin:round;stroke-opacity:1"
         d="M 8.7185878,4.0337352 -2.2072895,0.01601326 8.7185884,-4.0017078 c -1.7454984,2.3720609 -1.7354408,5.6174519 -6e-7,8.035443 z"
         transform="scale(-0.6)" />
    </marker>
  </defs>
  <sodipodi:namedview
     id="base"
     pagecolor="#ffffff"
     bordercolor="#666666"
     borderopacity="1.0"
     inkscape:pageopacity="0.0"
     inkscape:pageshadow="2"
     inkscape:zoom="5.6"
     inkscape:cx="315.19705"
     inkscape:cy="651.78458"
     inkscape:document-units="mm"
     inkscape:current-layer="layer1"
     showgrid="true"
     inkscape:window-width="1920"
     inkscape:window-height="1029"
     inkscape:window-x="1368"
     inkscape:window-y="494"
     inkscape:window-maximized="1">
    <inkscape:grid
       type="xygrid"
       id="grid4518" />
  </sodipodi:namedview>
  <metadata
     id="metadata5">
    <rdf:RDF>
      <cc:Work
         rdf:about="">
        <dc:format>image/svg+xml</dc:format>
        <dc:type
           rdf:resource="http://purl.org/dc/dcmitype/StillImage" />
        <dc:title></dc:title>
      </cc:Work>
    </rdf:RDF>
  </metadata>
  <g
     inkscape:label="Layer 1"
     inkscape:groupmode="layer"
     id="layer1">
    <rect
       style="fill:#0000ff;fill-opacity:1;stroke:#000000;stroke-width:0.26499996;stroke-miterlimit:4;stroke-dasharray:none;stroke-dashoffset:0;stroke-opacity:1"
       id="rect4524"
       width="11.906249"
       height="5.2915893"
       x="84.666664"
       y="130.3125" />
    <path
       style="fill:none;stroke:#000000;stroke-width:0.26458332;stroke-linecap:butt;stroke-linejoin:miter;stroke-miterlimit:4;stroke-dasharray:none;stroke-opacity:1;marker-end:url(#Arrow2Mend)"
       d="m 80.697916,135.60417 c 0,-7.40834 0,-7.40834 0,-7.40834"
       id="path5976"
       inkscape:connector-curvature="0" />
    <path
       style="fill:none;stroke:#000000;stroke-width:0.26458332;stroke-linecap:round;stroke-linejoin:miter;stroke-miterlimit:4;stroke-dasharray:none;stroke-opacity:1;marker-end:url(#Arrow2Mend-3)"
       d="M 78.052083,135.60417 H 116.41666"
       id="path5976-7"
       inkscape:connector-curvature="0"
       sodipodi:nodetypes="cc" />
    <path
       style="fill:none;stroke:#000000;stroke-width:0.26458332;stroke-linecap:butt;stroke-linejoin:miter;stroke-miterlimit:4;stroke-dasharray:none;stroke-opacity:1;marker-end:url(#Arrow2Mend-5)"
       d="m 108.47917,127.66667 c 0,7.40833 0,7.40833 0,7.40833"
       id="path5976-5"
       inkscape:connector-curvature="0" />
    <path
       id="path8650"
       d="m 72.760417,131.63541 h 0.630426 c 0.0489,0 0.182808,0 0.182808,-0.12789 0,-0.0895 -0.07824,-0.0895 -0.148955,-0.0895 H 72.37524 c -0.07523,0 -0.221176,0 -0.385929,0.17679 -0.124881,0.13391 -0.229451,0.31371 -0.229451,0.33703 0,0.004 0,0.0361 0.04514,0.0361 0.03009,0 0.03762,-0.0135 0.05943,-0.0444 0.185065,-0.28813 0.397965,-0.28813 0.476204,-0.28813 h 0.311452 l -0.367874,1.20293 c -0.01429,0.0444 -0.03611,0.12337 -0.03611,0.13842 0,0.0414 0.02558,0.10081 0.108331,0.10081 0.123377,0 0.142184,-0.10457 0.153469,-0.16099 z"
       inkscape:connector-curvature="0"
       style="font-style:normal;font-variant:normal;font-weight:normal;font-stretch:normal;letter-spacing:normal;word-spacing:normal;text-anchor:start;fill:#000000;fill-opacity:1;fill-rule:evenodd;stroke:#000000;stroke-width:0;stroke-linecap:butt;stroke-linejoin:miter;stroke-miterlimit:10.43299961;stroke-dasharray:none;stroke-dashoffset:0;stroke-opacity:1" />
    <path
       id="path8652"
       d="m 81.084793,124.49438 -0.0068,-0.0128 -0.0068,-0.0128 -0.0068,-0.012 -0.0068,-0.012 -0.0075,-0.012 -0.0075,-0.012 -0.0083,-0.0113 -0.0083,-0.0105 -0.0083,-0.0113 -0.009,-0.01 -0.009,-0.0105 -0.009,-0.01 -0.0098,-0.009 -0.0098,-0.009 -0.01053,-0.008 -0.01053,-0.008 -0.01053,-0.008 -0.01128,-0.007 -0.01129,-0.008 -0.01204,-0.006 -0.01204,-0.006 -0.01204,-0.006 -0.01279,-0.005 -0.01279,-0.005 -0.01279,-0.004 -0.01429,-0.004 -0.01354,-0.003 -0.01429,-0.002 -0.01429,-0.002 -0.01505,-0.002 -0.01505,-7.6e-4 h -0.0158 l 0.0038,0.082 c 0.242993,0 0.295654,0.30693 0.295654,0.32875 0,0.0241 -0.0068,0.0459 -0.01053,0.0647 l -0.188074,0.73499 c -0.01881,0.067 -0.01881,0.0737 -0.07523,0.13843 -0.164001,0.20613 -0.318222,0.26556 -0.422792,0.26556 -0.187322,0 -0.239983,-0.20538 -0.239983,-0.35208 0,-0.18732 0.119616,-0.64773 0.205378,-0.82076 0.116606,-0.22117 0.285873,-0.35959 0.43558,-0.35959 l -0.0038,-0.082 c -0.43859,0 -0.902758,0.54993 -0.902758,1.09761 0,0.35283 0.205377,0.59958 0.498021,0.59958 0.07448,0 0.262553,-0.0158 0.486737,-0.28136 0.03084,0.15798 0.160992,0.28136 0.340792,0.28136 0.131652,0 0.217414,-0.0858 0.277598,-0.20613 0.06394,-0.13466 0.112844,-0.36411 0.112844,-0.37088 0,-0.0376 -0.03385,-0.0376 -0.04439,-0.0376 -0.03761,0 -0.04138,0.0151 -0.05341,0.0677 -0.06319,0.24374 -0.131653,0.46417 -0.284369,0.46417 -0.100808,0 -0.112845,-0.097 -0.112845,-0.17228 0,-0.0828 0.0075,-0.11209 0.04815,-0.2776 0.04288,-0.15723 0.04965,-0.19484 0.08351,-0.33703 l 0.133909,-0.52435 c 0.02708,-0.10457 0.02708,-0.11284 0.02708,-0.12714 0,-0.0647 -0.04589,-0.10231 -0.109083,-0.10231 -0.08952,0 -0.145946,0.0835 -0.15723,0.16551 z"
       inkscape:connector-curvature="0"
       style="font-style:normal;font-variant:normal;font-weight:normal;font-stretch:normal;letter-spacing:normal;word-spacing:normal;text-anchor:start;fill:#000000;fill-opacity:1;fill-rule:evenodd;stroke:#000000;stroke-width:0;stroke-linecap:butt;stroke-linejoin:miter;stroke-miterlimit:10.43299961;stroke-dasharray:none;stroke-dashoffset:0;stroke-opacity:1" />
    <path
       id="path8654"
       d="m 90.428341,125.04409 0.01053,-7.5e-4 h 0.01204 0.01204 0.01354 l 0.01429,-7.6e-4 h 0.01505 l 0.0158,-7.5e-4 0.0158,-7.5e-4 0.0173,-7.5e-4 0.0173,-7.6e-4 0.01806,-7.5e-4 0.01805,-0.001 0.01956,-0.002 0.01881,-0.001 0.03912,-0.004 0.04062,-0.005 0.04062,-0.005 0.04138,-0.008 0.04062,-0.008 0.03987,-0.009 0.01956,-0.005 0.01956,-0.006 0.01956,-0.006 0.01805,-0.006 0.01881,-0.007 0.0173,-0.008 c 0.262552,-0.11284 0.281361,-0.33326 0.281361,-0.38517 0,-0.16551 -0.142185,-0.31823 -0.400975,-0.31823 v 0.082 c 0.176038,0 0.277598,0.10833 0.277598,0.23622 0,0.38893 -0.599582,0.38893 -0.753804,0.38893 H 90.25154 c 0.14745,-0.56873 0.532627,-0.62515 0.630426,-0.62515 v -0.082 c -0.416021,0 -0.981749,0.36261 -0.981749,1.01862 0,0.38216 0.221175,0.67857 0.588297,0.67857 0.535636,0 0.850849,-0.39721 0.850849,-0.44235 0,-0.0218 -0.02257,-0.0489 -0.04514,-0.0489 -0.01881,0 -0.02558,0.008 -0.0489,0.0376 -0.296406,0.37089 -0.704151,0.37089 -0.748537,0.37089 -0.293396,0 -0.32725,-0.31446 -0.32725,-0.43483 0,-0.0444 0.0038,-0.16099 0.06018,-0.38969 z"
       inkscape:connector-curvature="0"
       style="font-style:normal;font-variant:normal;font-weight:normal;font-stretch:normal;letter-spacing:normal;word-spacing:normal;text-anchor:start;fill:#000000;fill-opacity:1;fill-rule:evenodd;stroke:#000000;stroke-width:0;stroke-linecap:butt;stroke-linejoin:miter;stroke-miterlimit:10.43299961;stroke-dasharray:none;stroke-dashoffset:0;stroke-opacity:1" />
    <path
       id="path8656"
       d="m 109.37234,123.82289 v 0 -7.5e-4 0 -7.5e-4 l -7.5e-4,-0.002 v -7.5e-4 -0.002 -0.002 -0.002 l -7.6e-4,-0.002 v -0.001 l -7.5e-4,-0.002 -7.5e-4,-0.001 -7.5e-4,-0.002 -7.5e-4,-0.001 -7.6e-4,-0.002 -7.5e-4,-0.001 -0.001,-0.002 -0.002,-0.002 -0.001,-10e-4 -0.002,-0.002 -7.5e-4,-7.5e-4 -0.001,-7.5e-4 -7.5e-4,-7.5e-4 -7.6e-4,-7.6e-4 -0.001,-7.5e-4 -7.5e-4,-7.5e-4 -0.002,-7.5e-4 -7.5e-4,-7.6e-4 -0.002,-7.5e-4 -0.001,-7.5e-4 h -0.002 l -0.001,-7.5e-4 -0.002,-7.6e-4 h -0.001 l -0.002,-7.5e-4 -0.001,-7.5e-4 h -0.002 -0.001 l -0.002,-7.5e-4 h -0.001 -0.002 l -0.002,-7.5e-4 h -0.002 -0.002 c -0.0572,0 -0.41301,0.0346 -0.47621,0.0414 -0.0308,0.004 -0.0534,0.0226 -0.0534,0.0715 0,0.0451 0.0346,0.0451 0.091,0.0451 0.1798,0 0.18657,0.0256 0.18657,0.0632 l -0.0105,0.0752 -0.22569,0.88848 c -0.067,-0.13843 -0.17603,-0.23924 -0.34455,-0.23924 l 0.004,0.082 c 0.24299,0 0.29641,0.30692 0.29641,0.32875 0,0.0241 -0.007,0.0459 -0.0105,0.0647 l -0.18808,0.73499 c -0.0188,0.067 -0.0188,0.0737 -0.0752,0.13843 -0.16475,0.20613 -0.31897,0.26556 -0.42354,0.26556 -0.18657,0 -0.23998,-0.20538 -0.23998,-0.35208 0,-0.18732 0.12036,-0.64773 0.20613,-0.82077 0.11585,-0.22117 0.28587,-0.35958 0.43482,-0.35958 l -0.004,-0.082 c -0.43859,0 -0.90275,0.54992 -0.90275,1.09761 0,0.35283 0.20613,0.59958 0.49877,0.59958 0.0737,0 0.2618,-0.0158 0.48674,-0.28136 0.0301,0.15798 0.16099,0.28136 0.34079,0.28136 0.13165,0 0.21741,-0.0858 0.27684,-0.20613 0.0639,-0.13466 0.11285,-0.36411 0.11285,-0.37088 0,-0.0376 -0.0339,-0.0376 -0.0444,-0.0376 -0.0376,0 -0.0414,0.0151 -0.0527,0.0677 -0.064,0.24374 -0.13165,0.46417 -0.28437,0.46417 -0.10156,0 -0.11284,-0.097 -0.11284,-0.17228 0,-0.0895 0.007,-0.11661 0.0218,-0.1798 z"
       inkscape:connector-curvature="0"
       style="font-style:normal;font-variant:normal;font-weight:normal;font-stretch:normal;letter-spacing:normal;word-spacing:normal;text-anchor:start;fill:#000000;fill-opacity:1;fill-rule:evenodd;stroke:#000000;stroke-width:0;stroke-linecap:butt;stroke-linejoin:miter;stroke-miterlimit:10.43299961;stroke-dasharray:none;stroke-dashoffset:0;stroke-opacity:1" />
    <path
       style="fill:none;stroke:#000000;stroke-width:0.26458332px;stroke-linecap:butt;stroke-linejoin:miter;stroke-opacity:1"
       d="m 84.666666,126.34374 v 2.64583 -1.32291 h 11.906249 v -1.32292 2.64583"
       id="path8703"
       inkscape:connector-curvature="0" />
    <path
       id="path8734"
       d="m 95.50202,138.24999 h 0.352076 c 0.07448,0 0.112092,0 0.112092,-0.0752 0,-0.0414 -0.03761,-0.0414 -0.104569,-0.0414 H 95.53136 c 0.134661,-0.53263 0.153469,-0.60786 0.153469,-0.62968 0,-0.0639 -0.04439,-0.10156 -0.107579,-0.10156 -0.01204,0 -0.116606,0.004 -0.150459,0.13542 l -0.145946,0.59582 h -0.352828 c -0.07523,0 -0.112845,0 -0.112845,0.0707 0,0.0459 0.03084,0.0459 0.106074,0.0459 H 95.25 c -0.269322,1.06375 -0.284368,1.12695 -0.284368,1.19541 0,0.20237 0.142184,0.34455 0.344552,0.34455 0.382168,0 0.595821,-0.54692 0.595821,-0.57701 0,-0.0376 -0.02934,-0.0376 -0.04439,-0.0376 -0.03461,0 -0.03762,0.0113 -0.05642,0.0527 -0.160992,0.38894 -0.359599,0.47922 -0.486737,0.47922 -0.07899,0 -0.116607,-0.0489 -0.116607,-0.17228 0,-0.0895 0.0068,-0.11661 0.02257,-0.1798 z"
       inkscape:connector-curvature="0"
       style="font-style:normal;font-variant:normal;font-weight:normal;font-stretch:normal;letter-spacing:normal;word-spacing:normal;text-anchor:start;fill:#000000;fill-opacity:1;fill-rule:evenodd;stroke:#000000;stroke-width:0;stroke-linecap:butt;stroke-linejoin:miter;stroke-miterlimit:10.43299961;stroke-dasharray:none;stroke-dashoffset:0;stroke-opacity:1" />
  </g>
</svg>
