<?xml version="1.0" encoding="UTF-8" standalone="no"?>
<!-- Created with Inkscape (http://www.inkscape.org/) -->

<svg
   xmlns:dc="http://purl.org/dc/elements/1.1/"
   xmlns:cc="http://creativecommons.org/ns#"
   xmlns:rdf="http://www.w3.org/1999/02/22-rdf-syntax-ns#"
   xmlns:svg="http://www.w3.org/2000/svg"
   xmlns="http://www.w3.org/2000/svg"
   xmlns:sodipodi="http://sodipodi.sourceforge.net/DTD/sodipodi-0.dtd"
   xmlns:inkscape="http://www.inkscape.org/namespaces/inkscape"
   width="210mm"
   height="297mm"
   viewBox="0 0 210 297"
   version="1.1"
   id="svg8"
   inkscape:version="0.92.1 r15371"
   sodipodi:docname="taskParametersSingleTask.svg">
  <defs
     id="defs2">
    <marker
       inkscape:isstock="true"
       style="overflow:visible;"
       id="marker3081"
       refX="0.0"
       refY="0.0"
       orient="auto"
       inkscape:stockid="Arrow2Send">
      <path
         transform="scale(0.3) rotate(180) translate(-2.3,0)"
         d="M 8.7185878,4.0337352 L -2.2072895,0.016013256 L 8.7185884,-4.0017078 C 6.9730900,-1.6296469 6.9831476,1.6157441 8.7185878,4.0337352 z "
         style="fill-rule:evenodd;stroke-width:0.625;stroke-linejoin:round;stroke:#000000;stroke-opacity:1;fill:#000000;fill-opacity:1"
         id="path3079" />
    </marker>
    <marker
       inkscape:isstock="true"
       style="overflow:visible;"
       id="marker3077"
       refX="0.0"
       refY="0.0"
       orient="auto"
       inkscape:stockid="Arrow2Send">
      <path
         transform="scale(0.3) rotate(180) translate(-2.3,0)"
         d="M 8.7185878,4.0337352 L -2.2072895,0.016013256 L 8.7185884,-4.0017078 C 6.9730900,-1.6296469 6.9831476,1.6157441 8.7185878,4.0337352 z "
         style="fill-rule:evenodd;stroke-width:0.625;stroke-linejoin:round;stroke:#000000;stroke-opacity:1;fill:#000000;fill-opacity:1"
         id="path3075" />
    </marker>
    <marker
       inkscape:isstock="true"
       style="overflow:visible;"
       id="marker3073"
       refX="0.0"
       refY="0.0"
       orient="auto"
       inkscape:stockid="Arrow2Send">
      <path
         transform="scale(0.3) rotate(180) translate(-2.3,0)"
         d="M 8.7185878,4.0337352 L -2.2072895,0.016013256 L 8.7185884,-4.0017078 C 6.9730900,-1.6296469 6.9831476,1.6157441 8.7185878,4.0337352 z "
         style="fill-rule:evenodd;stroke-width:0.625;stroke-linejoin:round;stroke:#000000;stroke-opacity:1;fill:#000000;fill-opacity:1"
         id="path3071" />
    </marker>
    <marker
       inkscape:isstock="true"
       style="overflow:visible;"
       id="marker3069"
       refX="0.0"
       refY="0.0"
       orient="auto"
       inkscape:stockid="Arrow2Send">
      <path
         transform="scale(0.3) rotate(180) translate(-2.3,0)"
         d="M 8.7185878,4.0337352 L -2.2072895,0.016013256 L 8.7185884,-4.0017078 C 6.9730900,-1.6296469 6.9831476,1.6157441 8.7185878,4.0337352 z "
         style="fill-rule:evenodd;stroke-width:0.625;stroke-linejoin:round;stroke:#000000;stroke-opacity:1;fill:#000000;fill-opacity:1"
         id="path3067" />
    </marker>
    <marker
       inkscape:isstock="true"
       style="overflow:visible;"
       id="marker3061"
       refX="0.0"
       refY="0.0"
       orient="auto"
       inkscape:stockid="Arrow2Send">
      <path
         transform="scale(0.3) rotate(180) translate(-2.3,0)"
         d="M 8.7185878,4.0337352 L -2.2072895,0.016013256 L 8.7185884,-4.0017078 C 6.9730900,-1.6296469 6.9831476,1.6157441 8.7185878,4.0337352 z "
         style="fill-rule:evenodd;stroke-width:0.625;stroke-linejoin:round;stroke:#000000;stroke-opacity:1;fill:#000000;fill-opacity:1"
         id="path3059" />
    </marker>
    <marker
       inkscape:isstock="true"
       style="overflow:visible;"
       id="marker3057"
       refX="0.0"
       refY="0.0"
       orient="auto"
       inkscape:stockid="Arrow2Send">
      <path
         transform="scale(0.3) rotate(180) translate(-2.3,0)"
         d="M 8.7185878,4.0337352 L -2.2072895,0.016013256 L 8.7185884,-4.0017078 C 6.9730900,-1.6296469 6.9831476,1.6157441 8.7185878,4.0337352 z "
         style="fill-rule:evenodd;stroke-width:0.625;stroke-linejoin:round;stroke:#000000;stroke-opacity:1;fill:#000000;fill-opacity:1"
         id="path3055" />
    </marker>
    <marker
       inkscape:isstock="true"
       style="overflow:visible;"
       id="marker3053"
       refX="0.0"
       refY="0.0"
       orient="auto"
       inkscape:stockid="Arrow2Send">
      <path
         transform="scale(0.3) rotate(180) translate(-2.3,0)"
         d="M 8.7185878,4.0337352 L -2.2072895,0.016013256 L 8.7185884,-4.0017078 C 6.9730900,-1.6296469 6.9831476,1.6157441 8.7185878,4.0337352 z "
         style="fill-rule:evenodd;stroke-width:0.625;stroke-linejoin:round;stroke:#000000;stroke-opacity:1;fill:#000000;fill-opacity:1"
         id="path3051" />
    </marker>
    <marker
       inkscape:isstock="true"
       style="overflow:visible;"
       id="marker3049"
       refX="0.0"
       refY="0.0"
       orient="auto"
       inkscape:stockid="Arrow2Send">
      <path
         transform="scale(0.3) rotate(180) translate(-2.3,0)"
         d="M 8.7185878,4.0337352 L -2.2072895,0.016013256 L 8.7185884,-4.0017078 C 6.9730900,-1.6296469 6.9831476,1.6157441 8.7185878,4.0337352 z "
         style="fill-rule:evenodd;stroke-width:0.625;stroke-linejoin:round;stroke:#000000;stroke-opacity:1;fill:#000000;fill-opacity:1"
         id="path3047" />
    </marker>
    <marker
       inkscape:isstock="true"
       style="overflow:visible;"
       id="marker3045"
       refX="0.0"
       refY="0.0"
       orient="auto"
       inkscape:stockid="Arrow2Send">
      <path
         transform="scale(0.3) rotate(180) translate(-2.3,0)"
         d="M 8.7185878,4.0337352 L -2.2072895,0.016013256 L 8.7185884,-4.0017078 C 6.9730900,-1.6296469 6.9831476,1.6157441 8.7185878,4.0337352 z "
         style="fill-rule:evenodd;stroke-width:0.625;stroke-linejoin:round;stroke:#000000;stroke-opacity:1;fill:#000000;fill-opacity:1"
         id="path3043" />
    </marker>
    <marker
       inkscape:stockid="Arrow2Send"
       orient="auto"
       refY="0.0"
       refX="0.0"
       id="marker3041"
       style="overflow:visible;"
       inkscape:isstock="true"
       inkscape:collect="always">
      <path
         id="path3039"
         style="fill-rule:evenodd;stroke-width:0.625;stroke-linejoin:round;stroke:#000000;stroke-opacity:1;fill:#000000;fill-opacity:1"
         d="M 8.7185878,4.0337352 L -2.2072895,0.016013256 L 8.7185884,-4.0017078 C 6.9730900,-1.6296469 6.9831476,1.6157441 8.7185878,4.0337352 z "
         transform="scale(0.3) rotate(180) translate(-2.3,0)" />
    </marker>
    <marker
       inkscape:isstock="true"
       style="overflow:visible;"
       id="marker3037"
       refX="0.0"
       refY="0.0"
       orient="auto"
       inkscape:stockid="Arrow1Send">
      <path
         transform="scale(0.2) rotate(180) translate(6,0)"
         style="fill-rule:evenodd;stroke:#000000;stroke-width:1pt;stroke-opacity:1;fill:#000000;fill-opacity:1"
         d="M 0.0,0.0 L 5.0,-5.0 L -12.5,0.0 L 5.0,5.0 L 0.0,0.0 z "
         id="path3035" />
    </marker>
    <marker
       inkscape:isstock="true"
       style="overflow:visible;"
       id="marker3033"
       refX="0.0"
       refY="0.0"
       orient="auto"
       inkscape:stockid="Arrow1Send">
      <path
         transform="scale(0.2) rotate(180) translate(6,0)"
         style="fill-rule:evenodd;stroke:#000000;stroke-width:1pt;stroke-opacity:1;fill:#000000;fill-opacity:1"
         d="M 0.0,0.0 L 5.0,-5.0 L -12.5,0.0 L 5.0,5.0 L 0.0,0.0 z "
         id="path3031" />
    </marker>
    <marker
       inkscape:isstock="true"
       style="overflow:visible;"
       id="marker3029"
       refX="0.0"
       refY="0.0"
       orient="auto"
       inkscape:stockid="Arrow1Send">
      <path
         transform="scale(0.2) rotate(180) translate(6,0)"
         style="fill-rule:evenodd;stroke:#000000;stroke-width:1pt;stroke-opacity:1;fill:#000000;fill-opacity:1"
         d="M 0.0,0.0 L 5.0,-5.0 L -12.5,0.0 L 5.0,5.0 L 0.0,0.0 z "
         id="path3027" />
    </marker>
    <marker
       inkscape:isstock="true"
       style="overflow:visible;"
       id="marker3025"
       refX="0.0"
       refY="0.0"
       orient="auto"
       inkscape:stockid="Arrow1Send">
      <path
         transform="scale(0.2) rotate(180) translate(6,0)"
         style="fill-rule:evenodd;stroke:#000000;stroke-width:1pt;stroke-opacity:1;fill:#000000;fill-opacity:1"
         d="M 0.0,0.0 L 5.0,-5.0 L -12.5,0.0 L 5.0,5.0 L 0.0,0.0 z "
         id="path3023" />
    </marker>
    <marker
       inkscape:isstock="true"
       style="overflow:visible;"
       id="marker3021"
       refX="0.0"
       refY="0.0"
       orient="auto"
       inkscape:stockid="Arrow1Send">
      <path
         transform="scale(0.2) rotate(180) translate(6,0)"
         style="fill-rule:evenodd;stroke:#000000;stroke-width:1pt;stroke-opacity:1;fill:#000000;fill-opacity:1"
         d="M 0.0,0.0 L 5.0,-5.0 L -12.5,0.0 L 5.0,5.0 L 0.0,0.0 z "
         id="path3019" />
    </marker>
    <marker
       inkscape:stockid="Arrow2Send"
       orient="auto"
       refY="0.0"
       refX="0.0"
       id="Arrow2Send"
       style="overflow:visible;"
       inkscape:isstock="true">
      <path
         id="path2786"
         style="fill-rule:evenodd;stroke-width:0.625;stroke-linejoin:round;stroke:#000000;stroke-opacity:1;fill:#000000;fill-opacity:1"
         d="M 8.7185878,4.0337352 L -2.2072895,0.016013256 L 8.7185884,-4.0017078 C 6.9730900,-1.6296469 6.9831476,1.6157441 8.7185878,4.0337352 z "
         transform="scale(0.3) rotate(180) translate(-2.3,0)" />
    </marker>
    <marker
       inkscape:stockid="Arrow2Mend"
       orient="auto"
       refY="0.0"
       refX="0.0"
       id="Arrow2Mend"
       style="overflow:visible;"
       inkscape:isstock="true">
      <path
         id="path6005"
         style="fill-rule:evenodd;stroke-width:0.625;stroke-linejoin:round;stroke:#000000;stroke-opacity:1;fill:#000000;fill-opacity:1"
         d="M 8.7185878,4.0337352 L -2.2072895,0.016013256 L 8.7185884,-4.0017078 C 6.9730900,-1.6296469 6.9831476,1.6157441 8.7185878,4.0337352 z "
         transform="scale(0.6) rotate(180) translate(0,0)" />
    </marker>
    <marker
       inkscape:stockid="Arrow2Lend"
       orient="auto"
       refY="0.0"
       refX="0.0"
       id="Arrow2Lend"
       style="overflow:visible;"
       inkscape:isstock="true">
      <path
         id="path5999"
         style="fill-rule:evenodd;stroke-width:0.625;stroke-linejoin:round;stroke:#000000;stroke-opacity:1;fill:#000000;fill-opacity:1"
         d="M 8.7185878,4.0337352 L -2.2072895,0.016013256 L 8.7185884,-4.0017078 C 6.9730900,-1.6296469 6.9831476,1.6157441 8.7185878,4.0337352 z "
         transform="scale(1.1) rotate(180) translate(1,0)" />
    </marker>
    <marker
       inkscape:stockid="Arrow2Mend"
       orient="auto"
       refY="0"
       refX="0"
       id="Arrow2Mend-3"
       style="overflow:visible"
       inkscape:isstock="true">
      <path
         inkscape:connector-curvature="0"
         id="path6005-6"
         style="fill:#000000;fill-opacity:1;fill-rule:evenodd;stroke:#000000;stroke-width:0.625;stroke-linejoin:round;stroke-opacity:1"
         d="M 8.7185878,4.0337352 -2.2072895,0.01601326 8.7185884,-4.0017078 c -1.7454984,2.3720609 -1.7354408,5.6174519 -6e-7,8.035443 z"
         transform="scale(-0.6)" />
    </marker>
    <marker
       inkscape:stockid="Arrow2Mend"
       orient="auto"
       refY="0"
       refX="0"
       id="Arrow2Mend-5"
       style="overflow:visible"
       inkscape:isstock="true">
      <path
         inkscape:connector-curvature="0"
         id="path6005-3"
         style="fill:#000000;fill-opacity:1;fill-rule:evenodd;stroke:#000000;stroke-width:0.625;stroke-linejoin:round;stroke-opacity:1"
         d="M 8.7185878,4.0337352 -2.2072895,0.01601326 8.7185884,-4.0017078 c -1.7454984,2.3720609 -1.7354408,5.6174519 -6e-7,8.035443 z"
         transform="scale(-0.6)" />
    </marker>
    <marker
       inkscape:stockid="Arrow2Mend"
       orient="auto"
       refY="0"
       refX="0"
       id="Arrow2Mend-5-9"
       style="overflow:visible"
       inkscape:isstock="true">
      <path
         inkscape:connector-curvature="0"
         id="path6005-3-3"
         style="fill:#000000;fill-opacity:1;fill-rule:evenodd;stroke:#000000;stroke-width:0.625;stroke-linejoin:round;stroke-opacity:1"
         d="M 8.7185878,4.0337352 -2.2072895,0.01601326 8.7185884,-4.0017078 c -1.7454984,2.3720609 -1.7354408,5.6174519 -6e-7,8.035443 z"
         transform="scale(-0.6)" />
    </marker>
    <marker
       inkscape:stockid="Arrow2Mend"
       orient="auto"
       refY="0"
       refX="0"
       id="Arrow2Mend-6"
       style="overflow:visible"
       inkscape:isstock="true">
      <path
         inkscape:connector-curvature="0"
         id="path6005-0"
         style="fill:#000000;fill-opacity:1;fill-rule:evenodd;stroke:#000000;stroke-width:0.625;stroke-linejoin:round;stroke-opacity:1"
         d="M 8.7185878,4.0337352 -2.2072895,0.01601326 8.7185884,-4.0017078 c -1.7454984,2.3720609 -1.7354408,5.6174519 -6e-7,8.035443 z"
         transform="scale(-0.6)" />
    </marker>
    <marker
       inkscape:stockid="Arrow2Mend"
       orient="auto"
       refY="0"
       refX="0"
       id="Arrow2Mend-5-1"
       style="overflow:visible"
       inkscape:isstock="true">
      <path
         inkscape:connector-curvature="0"
         id="path6005-3-8"
         style="fill:#000000;fill-opacity:1;fill-rule:evenodd;stroke:#000000;stroke-width:0.625;stroke-linejoin:round;stroke-opacity:1"
         d="M 8.7185878,4.0337352 -2.2072895,0.01601326 8.7185884,-4.0017078 c -1.7454984,2.3720609 -1.7354408,5.6174519 -6e-7,8.035443 z"
         transform="scale(-0.6)" />
    </marker>
    <marker
       inkscape:stockid="Arrow2Mend"
       orient="auto"
       refY="0"
       refX="0"
       id="Arrow2Mend-7"
       style="overflow:visible"
       inkscape:isstock="true">
      <path
         inkscape:connector-curvature="0"
         id="path6005-9"
         style="fill:#000000;fill-opacity:1;fill-rule:evenodd;stroke:#000000;stroke-width:0.625;stroke-linejoin:round;stroke-opacity:1"
         d="M 8.7185878,4.0337352 -2.2072895,0.01601326 8.7185884,-4.0017078 c -1.7454984,2.3720609 -1.7354408,5.6174519 -6e-7,8.035443 z"
         transform="scale(-0.6)" />
    </marker>
    <marker
       inkscape:stockid="Arrow2Mend"
       orient="auto"
       refY="0"
       refX="0"
       id="Arrow2Mend-5-2"
       style="overflow:visible"
       inkscape:isstock="true">
      <path
         inkscape:connector-curvature="0"
         id="path6005-3-9"
         style="fill:#000000;fill-opacity:1;fill-rule:evenodd;stroke:#000000;stroke-width:0.625;stroke-linejoin:round;stroke-opacity:1"
         d="M 8.7185878,4.0337352 -2.2072895,0.01601326 8.7185884,-4.0017078 c -1.7454984,2.3720609 -1.7354408,5.6174519 -6e-7,8.035443 z"
         transform="scale(-0.6)" />
    </marker>
    <marker
       inkscape:stockid="Arrow2Mend"
       orient="auto"
       refY="0"
       refX="0"
       id="Arrow2Mend-5-2-1"
       style="overflow:visible"
       inkscape:isstock="true">
      <path
         inkscape:connector-curvature="0"
         id="path6005-3-9-9"
         style="fill:#000000;fill-opacity:1;fill-rule:evenodd;stroke:#000000;stroke-width:0.625;stroke-linejoin:round;stroke-opacity:1"
         d="M 8.7185878,4.0337352 -2.2072895,0.01601326 8.7185884,-4.0017078 c -1.7454984,2.3720609 -1.7354408,5.6174519 -6e-7,8.035443 z"
         transform="scale(-0.6)" />
    </marker>
    <marker
       inkscape:stockid="Arrow2Mend"
       orient="auto"
       refY="0"
       refX="0"
       id="Arrow2Mend-7-4"
       style="overflow:visible"
       inkscape:isstock="true">
      <path
         inkscape:connector-curvature="0"
         id="path6005-9-7"
         style="fill:#000000;fill-opacity:1;fill-rule:evenodd;stroke:#000000;stroke-width:0.625;stroke-linejoin:round;stroke-opacity:1"
         d="M 8.7185878,4.0337352 -2.2072895,0.01601326 8.7185884,-4.0017078 c -1.7454984,2.3720609 -1.7354408,5.6174519 -6e-7,8.035443 z"
         transform="scale(-0.6)" />
    </marker>
    <marker
       inkscape:stockid="Arrow2Mend"
       orient="auto"
       refY="0"
       refX="0"
       id="Arrow2Mend-5-2-1-6"
       style="overflow:visible"
       inkscape:isstock="true">
      <path
         inkscape:connector-curvature="0"
         id="path6005-3-9-9-5"
         style="fill:#000000;fill-opacity:1;fill-rule:evenodd;stroke:#000000;stroke-width:0.625;stroke-linejoin:round;stroke-opacity:1"
         d="M 8.7185878,4.0337352 -2.2072895,0.01601326 8.7185884,-4.0017078 c -1.7454984,2.3720609 -1.7354408,5.6174519 -6e-7,8.035443 z"
         transform="scale(-0.6)" />
    </marker>
    <marker
       inkscape:stockid="Arrow2Mend"
       orient="auto"
       refY="0"
       refX="0"
       id="Arrow2Mend-7-4-6"
       style="overflow:visible"
       inkscape:isstock="true">
      <path
         inkscape:connector-curvature="0"
         id="path6005-9-7-9"
         style="fill:#000000;fill-opacity:1;fill-rule:evenodd;stroke:#000000;stroke-width:0.625;stroke-linejoin:round;stroke-opacity:1"
         d="M 8.7185878,4.0337352 -2.2072895,0.01601326 8.7185884,-4.0017078 c -1.7454984,2.3720609 -1.7354408,5.6174519 -6e-7,8.035443 z"
         transform="scale(-0.6)" />
    </marker>
    <marker
       inkscape:stockid="Arrow2Mend"
       orient="auto"
       refY="0"
       refX="0"
       id="Arrow2Mend-5-2-3"
       style="overflow:visible"
       inkscape:isstock="true">
      <path
         inkscape:connector-curvature="0"
         id="path6005-3-9-7"
         style="fill:#000000;fill-opacity:1;fill-rule:evenodd;stroke:#000000;stroke-width:0.625;stroke-linejoin:round;stroke-opacity:1"
         d="M 8.7185878,4.0337352 -2.2072895,0.01601326 8.7185884,-4.0017078 c -1.7454984,2.3720609 -1.7354408,5.6174519 -6e-7,8.035443 z"
         transform="scale(-0.6)" />
    </marker>
    <marker
       inkscape:stockid="Arrow2Mend"
       orient="auto"
       refY="0"
       refX="0"
       id="Arrow2Mend-7-45"
       style="overflow:visible"
       inkscape:isstock="true">
      <path
         inkscape:connector-curvature="0"
         id="path6005-9-2"
         style="fill:#000000;fill-opacity:1;fill-rule:evenodd;stroke:#000000;stroke-width:0.625;stroke-linejoin:round;stroke-opacity:1"
         d="M 8.7185878,4.0337352 -2.2072895,0.01601326 8.7185884,-4.0017078 c -1.7454984,2.3720609 -1.7354408,5.6174519 -6e-7,8.035443 z"
         transform="scale(-0.6)" />
    </marker>
    <marker
       inkscape:stockid="Arrow2Mend"
       orient="auto"
       refY="0"
       refX="0"
       id="Arrow2Mend-6-5"
       style="overflow:visible"
       inkscape:isstock="true">
      <path
         inkscape:connector-curvature="0"
         id="path6005-0-4"
         style="fill:#000000;fill-opacity:1;fill-rule:evenodd;stroke:#000000;stroke-width:0.625;stroke-linejoin:round;stroke-opacity:1"
         d="M 8.7185878,4.0337352 -2.2072895,0.01601326 8.7185884,-4.0017078 c -1.7454984,2.3720609 -1.7354408,5.6174519 -6e-7,8.035443 z"
         transform="scale(-0.6)" />
    </marker>
    <marker
       inkscape:stockid="Arrow2Mend"
       orient="auto"
       refY="0"
       refX="0"
       id="Arrow2Mend-5-7"
       style="overflow:visible"
       inkscape:isstock="true">
      <path
         inkscape:connector-curvature="0"
         id="path6005-3-4"
         style="fill:#000000;fill-opacity:1;fill-rule:evenodd;stroke:#000000;stroke-width:0.625;stroke-linejoin:round;stroke-opacity:1"
         d="M 8.7185878,4.0337352 -2.2072895,0.01601326 8.7185884,-4.0017078 c -1.7454984,2.3720609 -1.7354408,5.6174519 -6e-7,8.035443 z"
         transform="scale(-0.6)" />
    </marker>
    <marker
       inkscape:stockid="Arrow2Mend"
       orient="auto"
       refY="0"
       refX="0"
       id="Arrow2Mend-3-4"
       style="overflow:visible"
       inkscape:isstock="true">
      <path
         inkscape:connector-curvature="0"
         id="path6005-6-3"
         style="fill:#000000;fill-opacity:1;fill-rule:evenodd;stroke:#000000;stroke-width:0.625;stroke-linejoin:round;stroke-opacity:1"
         d="M 8.7185878,4.0337352 -2.2072895,0.01601326 8.7185884,-4.0017078 c -1.7454984,2.3720609 -1.7354408,5.6174519 -6e-7,8.035443 z"
         transform="scale(-0.6)" />
    </marker>
    <marker
       inkscape:stockid="Arrow2Mend"
       orient="auto"
       refY="0"
       refX="0"
       id="Arrow2Mend-0"
       style="overflow:visible"
       inkscape:isstock="true">
      <path
         inkscape:connector-curvature="0"
         id="path6005-7"
         style="fill:#000000;fill-opacity:1;fill-rule:evenodd;stroke:#000000;stroke-width:0.625;stroke-linejoin:round;stroke-opacity:1"
         d="M 8.7185878,4.0337352 -2.2072895,0.01601326 8.7185884,-4.0017078 c -1.7454984,2.3720609 -1.7354408,5.6174519 -6e-7,8.035443 z"
         transform="scale(-0.6)" />
    </marker>
    <marker
       inkscape:stockid="Arrow2Mend"
       orient="auto"
       refY="0"
       refX="0"
       id="Arrow2Mend-5-2-1-3"
       style="overflow:visible"
       inkscape:isstock="true">
      <path
         inkscape:connector-curvature="0"
         id="path6005-3-9-9-6"
         style="fill:#000000;fill-opacity:1;fill-rule:evenodd;stroke:#000000;stroke-width:0.625;stroke-linejoin:round;stroke-opacity:1"
         d="M 8.7185878,4.0337352 -2.2072895,0.01601326 8.7185884,-4.0017078 c -1.7454984,2.3720609 -1.7354408,5.6174519 -6e-7,8.035443 z"
         transform="scale(-0.6)" />
    </marker>
    <marker
       inkscape:stockid="Arrow2Mend"
       orient="auto"
       refY="0"
       refX="0"
       id="Arrow2Mend-7-4-5"
       style="overflow:visible"
       inkscape:isstock="true">
      <path
         inkscape:connector-curvature="0"
         id="path6005-9-7-6"
         style="fill:#000000;fill-opacity:1;fill-rule:evenodd;stroke:#000000;stroke-width:0.625;stroke-linejoin:round;stroke-opacity:1"
         d="M 8.7185878,4.0337352 -2.2072895,0.01601326 8.7185884,-4.0017078 c -1.7454984,2.3720609 -1.7354408,5.6174519 -6e-7,8.035443 z"
         transform="scale(-0.6)" />
    </marker>
    <marker
       inkscape:stockid="Arrow2Mend"
       orient="auto"
       refY="0"
       refX="0"
       id="Arrow2Mend-5-2-39"
       style="overflow:visible"
       inkscape:isstock="true">
      <path
         inkscape:connector-curvature="0"
         id="path6005-3-9-4"
         style="fill:#000000;fill-opacity:1;fill-rule:evenodd;stroke:#000000;stroke-width:0.625;stroke-linejoin:round;stroke-opacity:1"
         d="M 8.7185878,4.0337352 -2.2072895,0.01601326 8.7185884,-4.0017078 c -1.7454984,2.3720609 -1.7354408,5.6174519 -6e-7,8.035443 z"
         transform="scale(-0.6)" />
    </marker>
    <marker
       inkscape:stockid="Arrow2Mend"
       orient="auto"
       refY="0"
       refX="0"
       id="Arrow2Mend-7-8"
       style="overflow:visible"
       inkscape:isstock="true">
      <path
         inkscape:connector-curvature="0"
         id="path6005-9-1"
         style="fill:#000000;fill-opacity:1;fill-rule:evenodd;stroke:#000000;stroke-width:0.625;stroke-linejoin:round;stroke-opacity:1"
         d="M 8.7185878,4.0337352 -2.2072895,0.01601326 8.7185884,-4.0017078 c -1.7454984,2.3720609 -1.7354408,5.6174519 -6e-7,8.035443 z"
         transform="scale(-0.6)" />
    </marker>
    <marker
       inkscape:stockid="Arrow2Mend"
       orient="auto"
       refY="0"
       refX="0"
       id="Arrow2Mend-6-2"
       style="overflow:visible"
       inkscape:isstock="true">
      <path
         inkscape:connector-curvature="0"
         id="path6005-0-9"
         style="fill:#000000;fill-opacity:1;fill-rule:evenodd;stroke:#000000;stroke-width:0.625;stroke-linejoin:round;stroke-opacity:1"
         d="M 8.7185878,4.0337352 -2.2072895,0.01601326 8.7185884,-4.0017078 c -1.7454984,2.3720609 -1.7354408,5.6174519 -6e-7,8.035443 z"
         transform="scale(-0.6)" />
    </marker>
    <marker
       inkscape:stockid="Arrow2Mend"
       orient="auto"
       refY="0"
       refX="0"
       id="Arrow2Mend-5-3"
       style="overflow:visible"
       inkscape:isstock="true">
      <path
         inkscape:connector-curvature="0"
         id="path6005-3-90"
         style="fill:#000000;fill-opacity:1;fill-rule:evenodd;stroke:#000000;stroke-width:0.625;stroke-linejoin:round;stroke-opacity:1"
         d="M 8.7185878,4.0337352 -2.2072895,0.01601326 8.7185884,-4.0017078 c -1.7454984,2.3720609 -1.7354408,5.6174519 -6e-7,8.035443 z"
         transform="scale(-0.6)" />
    </marker>
    <marker
       inkscape:stockid="Arrow2Mend"
       orient="auto"
       refY="0"
       refX="0"
       id="Arrow2Mend-3-8"
       style="overflow:visible"
       inkscape:isstock="true">
      <path
         inkscape:connector-curvature="0"
         id="path6005-6-8"
         style="fill:#000000;fill-opacity:1;fill-rule:evenodd;stroke:#000000;stroke-width:0.625;stroke-linejoin:round;stroke-opacity:1"
         d="M 8.7185878,4.0337352 -2.2072895,0.01601326 8.7185884,-4.0017078 c -1.7454984,2.3720609 -1.7354408,5.6174519 -6e-7,8.035443 z"
         transform="scale(-0.6)" />
    </marker>
    <marker
       inkscape:stockid="Arrow2Mend"
       orient="auto"
       refY="0"
       refX="0"
       id="Arrow2Mend-50"
       style="overflow:visible"
       inkscape:isstock="true">
      <path
         inkscape:connector-curvature="0"
         id="path6005-96"
         style="fill:#000000;fill-opacity:1;fill-rule:evenodd;stroke:#000000;stroke-width:0.625;stroke-linejoin:round;stroke-opacity:1"
         d="M 8.7185878,4.0337352 -2.2072895,0.01601326 8.7185884,-4.0017078 c -1.7454984,2.3720609 -1.7354408,5.6174519 -6e-7,8.035443 z"
         transform="scale(-0.6)" />
    </marker>
    <marker
       inkscape:isstock="true"
       style="overflow:visible"
       id="marker3073-8"
       refX="0"
       refY="0"
       orient="auto"
       inkscape:stockid="Arrow2Send">
      <path
         inkscape:connector-curvature="0"
         transform="matrix(-0.3,0,0,-0.3,0.69,0)"
         d="M 8.7185878,4.0337352 -2.2072895,0.01601326 8.7185884,-4.0017078 c -1.7454984,2.3720609 -1.7354408,5.6174519 -6e-7,8.035443 z"
         style="fill:#000000;fill-opacity:1;fill-rule:evenodd;stroke:#000000;stroke-width:0.625;stroke-linejoin:round;stroke-opacity:1"
         id="path3071-9" />
    </marker>
  </defs>
  <sodipodi:namedview
     id="base"
     pagecolor="#ffffff"
     bordercolor="#666666"
     borderopacity="1.0"
     inkscape:pageopacity="0.0"
     inkscape:pageshadow="2"
     inkscape:zoom="2.8"
     inkscape:cx="401.22641"
     inkscape:cy="535.54058"
     inkscape:document-units="mm"
     inkscape:current-layer="layer1"
     showgrid="true"
     inkscape:window-width="1920"
     inkscape:window-height="1057"
     inkscape:window-x="3278"
     inkscape:window-y="-8"
     inkscape:window-maximized="1">
    <inkscape:grid
       type="xygrid"
       id="grid4518" />
  </sodipodi:namedview>
  <metadata
     id="metadata5">
    <rdf:RDF>
      <cc:Work
         rdf:about="">
        <dc:format>image/svg+xml</dc:format>
        <dc:type
           rdf:resource="http://purl.org/dc/dcmitype/StillImage" />
        <dc:title></dc:title>
      </cc:Work>
    </rdf:RDF>
  </metadata>
  <g
     inkscape:label="Layer 1"
     inkscape:groupmode="layer"
     id="layer1">
    <rect
       style="fill:#0000ff;fill-opacity:1;stroke:#000000;stroke-width:0.26499996;stroke-miterlimit:4;stroke-dasharray:none;stroke-dashoffset:0;stroke-opacity:1"
       id="rect4524-2"
       width="7.9375095"
       height="5.2915893"
       x="104.51041"
       y="130.31248" />
    <rect
       style="fill:#0000ff;fill-opacity:1;stroke:#000000;stroke-width:0.26499996;stroke-miterlimit:4;stroke-dasharray:none;stroke-dashoffset:0;stroke-opacity:1"
       id="rect4524-2-8"
       width="3.9687622"
       height="5.2915893"
       x="124.35416"
       y="130.31256" />
    <rect
       style="fill:#0000ff;fill-opacity:1;stroke:#000000;stroke-width:0.26499996;stroke-miterlimit:4;stroke-dasharray:none;stroke-dashoffset:0;stroke-opacity:1"
       id="rect4524"
       width="3.9687548"
       height="5.2915893"
       x="84.666664"
       y="130.3125" />
    <path
       style="fill:none;stroke:#000000;stroke-width:0.265;stroke-linecap:butt;stroke-linejoin:miter;stroke-miterlimit:4;stroke-dasharray:none;stroke-opacity:1;marker-end:url(#Arrow2Send)"
       d="m 80.697916,135.60417 c 0,-5.29168 0,-5.29168 0,-5.29168"
       id="path5976"
       inkscape:connector-curvature="0" />
    <path
       style="fill:none;stroke:#000000;stroke-width:0.26458332;stroke-linecap:round;stroke-linejoin:miter;stroke-miterlimit:4;stroke-dasharray:none;stroke-opacity:1;marker-end:url(#Arrow2Mend-3)"
       d="M 72.760419,135.60417 H 144.19793"
       id="path5976-7"
       inkscape:connector-curvature="0"
       sodipodi:nodetypes="cc" />
    <path
       style="fill:none;stroke:#000000;stroke-width:0.265;stroke-linecap:butt;stroke-linejoin:miter;stroke-miterlimit:4;stroke-dasharray:none;stroke-opacity:1;marker-end:url(#marker3057)"
       d="m 96.572917,130.31249 c 0,4.93892 0,4.93892 0,4.93892"
       id="path5976-5"
       inkscape:connector-curvature="0" />
    <path
       style="fill:none;stroke:#000000;stroke-width:0.26458332px;stroke-linecap:butt;stroke-linejoin:miter;stroke-opacity:1"
       d="m 104.51041,125.02083 v 2.64583 -1.32291 h 7.9375 v -1.32292 2.64583"
       id="path8703"
       inkscape:connector-curvature="0" />
    <g
       transform="matrix(0.05956586,0,0,-0.05956585,39.837893,160.21766)"
       id="g1033"
       style="font-style:normal;font-variant:normal;font-weight:normal;font-stretch:normal;letter-spacing:normal;word-spacing:normal;text-anchor:start;fill:none;fill-opacity:1;fill-rule:evenodd;stroke:#000000;stroke-width:25.26946068;stroke-linecap:butt;stroke-linejoin:miter;stroke-miterlimit:10.43299961;stroke-dasharray:none;stroke-dashoffset:0;stroke-opacity:1">
      <path
         style="fill:#000000;stroke-width:0"
         inkscape:connector-curvature="0"
         d="m 470.16,424.78 h 8.38 c 0.65,0 2.43,0 2.43,1.7 0,1.19 -1.04,1.19 -1.98,1.19 h -13.95 c -1,0 -2.94,0 -5.13,-2.35 -1.66,-1.78 -3.05,-4.17 -3.05,-4.48 0,-0.05 0,-0.48 0.6,-0.48 0.4,0 0.5,0.18 0.79,0.59 2.46,3.83 5.29,3.83 6.33,3.83 h 4.14 l -4.89,-15.99 c -0.19,-0.59 -0.48,-1.64 -0.48,-1.84 0,-0.55 0.34,-1.34 1.44,-1.34 1.64,0 1.89,1.39 2.04,2.14 z"
         id="path963" />
      <path
         style="fill:#000000;stroke-width:0"
         inkscape:connector-curvature="0"
         d="m 488.91,420.92 v 0.04 0.04 0.05 0.04 0.03 0.04 0.04 0.03 l -0.01,0.04 v 0.03 0.03 0.03 0.03 l -0.01,0.03 v 0.03 l -0.01,0.02 v 0.03 0.02 l -0.01,0.03 v 0.02 l -0.02,0.04 -0.01,0.04 -0.02,0.03 -0.02,0.03 -0.02,0.03 -0.02,0.03 -0.03,0.02 -0.03,0.02 -0.04,0.02 -0.03,0.01 -0.04,0.01 -0.05,0.02 h -0.02 -0.03 l -0.02,0.01 h -0.03 l -0.03,0.01 h -0.02 -0.03 -0.03 -0.04 l -0.03,0.01 h -0.03 -0.04 -0.04 -0.03 -0.04 -0.04 -0.04 -0.05 -0.04 -0.05 c -2.23,-2.2 -5.39,-2.23 -6.82,-2.23 v -1.25 c 0.84,0 3.14,0 5.04,0.97 v -17.77 c 0,-1.16 0,-1.61 -3.48,-1.61 h -1.31 v -1.25 c 0.62,0.03 4.9,0.14 6.2,0.14 1.08,0 5.47,-0.11 6.23,-0.14 v 1.25 h -1.33 c -3.48,0 -3.48,0.45 -3.48,1.61 z"
         id="path965" />
    </g>
    <g
       style="stroke-width:5.03644276"
       transform="matrix(0.19855284,0,0,0.19855283,59.320154,100.83714)"
       id="g1058">
      <path
         style="font-style:normal;font-variant:normal;font-weight:normal;font-stretch:normal;letter-spacing:normal;word-spacing:normal;text-anchor:start;fill:#000000;fill-opacity:1;fill-rule:evenodd;stroke:#000000;stroke-width:0;stroke-linecap:butt;stroke-linejoin:miter;stroke-miterlimit:10.43299961;stroke-dasharray:none;stroke-dashoffset:0;stroke-opacity:1"
         inkscape:connector-curvature="0"
         d="m 86.538,113.154 -0.027,-0.051 -0.027,-0.051 -0.027,-0.048 -0.027,-0.048 -0.03,-0.048 -0.03,-0.048 -0.033,-0.045 -0.033,-0.042 -0.033,-0.045 -0.036,-0.039 -0.036,-0.042 -0.036,-0.039 -0.039,-0.036 -0.039,-0.036 -0.042,-0.033 -0.042,-0.033 -0.042,-0.033 -0.045,-0.027 -0.045,-0.03 -0.045,-0.024 -0.048,-0.024 -0.051,-0.024 -0.051,-0.018 -0.051,-0.021 -0.051,-0.015 -0.054,-0.015 -0.057,-0.012 -0.057,-0.009 -0.057,-0.009 -0.06,-0.006 -0.06,-0.003 h -0.063 l 0.015,0.327 c 0.969,0 1.179,1.224 1.179,1.311 0,0.096 -0.027,0.183 -0.042,0.258 l -0.75,2.931 c -0.075,0.267 -0.075,0.294 -0.3,0.552 -0.654,0.822 -1.269,1.059 -1.686,1.059 -0.747,0 -0.957,-0.819 -0.957,-1.404 0,-0.747 0.477,-2.583 0.822,-3.273 0.462,-0.882 1.137,-1.434 1.734,-1.434 L 85.164,112.2 c -1.749,0 -3.6,2.193 -3.6,4.377 0,1.407 0.819,2.391 1.986,2.391 0.297,0 1.047,-0.063 1.941,-1.122 0.123,0.63 0.642,1.122 1.359,1.122 0.525,0 0.87,-0.342 1.107,-0.822 0.255,-0.537 0.45,-1.452 0.45,-1.479 0,-0.15 -0.135,-0.15 -0.177,-0.15 -0.15,0 -0.165,0.06 -0.21,0.27 -0.255,0.972 -0.525,1.851 -1.137,1.851 -0.402,0 -0.45,-0.387 -0.45,-0.687 0,-0.33 0.03,-0.447 0.192,-1.107 0.171,-0.627 0.198,-0.777 0.333,-1.344 l 0.537,-2.091 c 0.105,-0.417 0.105,-0.45 0.105,-0.507 0,-0.258 -0.18,-0.408 -0.435,-0.408 -0.357,0 -0.582,0.333 -0.627,0.66 z"
         id="path967" />
      <path
         style="font-style:normal;font-variant:normal;font-weight:normal;font-stretch:normal;letter-spacing:normal;word-spacing:normal;text-anchor:start;fill:#000000;fill-opacity:1;fill-rule:evenodd;stroke:#000000;stroke-width:0;stroke-linecap:butt;stroke-linejoin:miter;stroke-miterlimit:10.43299961;stroke-dasharray:none;stroke-dashoffset:0;stroke-opacity:1"
         inkscape:connector-curvature="0"
         d="m 92.349,114.387 v -0.012 -0.012 -0.015 -0.012 -0.009 -0.012 -0.012 -0.009 -0.012 -0.009 l -0.003,-0.009 v -0.009 -0.009 l -0.003,-0.009 v -0.009 -0.006 l -0.003,-0.009 v -0.006 l -0.003,-0.009 v -0.006 l -0.003,-0.012 -0.006,-0.012 -0.006,-0.009 -0.006,-0.009 -0.006,-0.009 -0.006,-0.009 -0.009,-0.006 -0.009,-0.006 -0.009,-0.006 -0.012,-0.003 -0.012,-0.003 -0.015,-0.006 h -0.006 -0.006 l -0.009,-0.003 h -0.009 l -0.006,-0.003 h -0.009 -0.009 -0.009 -0.009 l -0.012,-0.003 H 92.145 92.133 92.124 92.112 92.1 92.088 92.076 92.064 92.049 92.037 c -0.672,0.66 -1.617,0.669 -2.049,0.669 v 0.375 c 0.252,0 0.942,0 1.512,-0.291 v 5.331 c 0,0.348 0,0.483 -1.044,0.483 h -0.393 v 0.375 c 0.186,-0.009 1.47,-0.042 1.86,-0.042 0.324,0 1.641,0.033 1.872,0.042 v -0.375 h -0.399 c -1.047,0 -1.047,-0.135 -1.047,-0.483 z"
         id="path969" />
    </g>
    <g
       style="stroke-width:5.03644276"
       transform="matrix(0.19855284,0,0,0.19855283,70.451692,100.91159)"
       id="g1062">
      <path
         style="font-style:normal;font-variant:normal;font-weight:normal;font-stretch:normal;letter-spacing:normal;word-spacing:normal;text-anchor:start;fill:#000000;fill-opacity:1;fill-rule:evenodd;stroke:#000000;stroke-width:0;stroke-linecap:butt;stroke-linejoin:miter;stroke-miterlimit:10.43299961;stroke-dasharray:none;stroke-dashoffset:0;stroke-opacity:1"
         inkscape:connector-curvature="0"
         d="m 96.249,120.627 -0.009,0.045 -0.012,0.045 -0.009,0.042 -0.009,0.039 -0.012,0.039 -0.009,0.033 -0.012,0.036 -0.009,0.03 -0.012,0.03 -0.012,0.027 -0.012,0.027 -0.015,0.024 -0.015,0.021 -0.015,0.021 -0.018,0.021 -0.018,0.018 -0.021,0.015 -0.021,0.015 -0.024,0.012 -0.027,0.012 -0.027,0.012 -0.03,0.009 -0.033,0.009 -0.036,0.006 -0.039,0.006 -0.018,0.003 -0.021,0.003 -0.021,0.003 -0.024,0.003 h -0.021 l -0.024,0.003 H 95.64 l -0.027,0.003 h -0.027 -0.027 -0.027 -0.027 l -0.03,0.003 h -0.03 c -0.18,0 -0.345,0 -0.345,0.279 0,0.123 0.075,0.183 0.195,0.183 0.405,0 0.837,-0.045 1.254,-0.045 0.492,0 1.005,0.045 1.482,0.045 0.075,0 0.267,0 0.267,-0.3 0,-0.162 -0.15,-0.162 -0.357,-0.162 -0.75,0 -0.75,-0.108 -0.75,-0.24 0,-0.183 0.63,-2.616 0.738,-2.991 0.192,0.432 0.609,0.957 1.371,0.957 l -0.012,-0.33 c -0.99,0 -1.182,-1.242 -1.182,-1.329 0,-0.03 0,-0.063 0.042,-0.24 l 0.735,-2.931 c 0.105,-0.402 0.507,-0.819 0.774,-1.044 0.525,-0.465 0.963,-0.567 1.215,-0.567 0.594,0 0.957,0.519 0.957,1.407 0,0.879 -0.492,2.595 -0.765,3.168 -0.507,1.044 -1.224,1.536 -1.776,1.536 l 0.012,0.33 c 1.737,0 3.6,-2.181 3.6,-4.38 0,-1.404 -0.846,-2.388 -1.986,-2.388 -0.744,0 -1.464,0.534 -1.956,1.119 -0.15,-0.807 -0.792,-1.119 -1.344,-1.119 -0.69,0 -0.975,0.579 -1.107,0.846 -0.27,0.513 -0.462,1.407 -0.462,1.455 0,0.15 0.15,0.15 0.177,0.15 0.15,0 0.165,-0.021 0.252,-0.348 0.258,-1.059 0.555,-1.776 1.092,-1.776 0.255,0 0.465,0.117 0.465,0.684 0,0.348 -0.048,0.51 -0.102,0.765 z"
         id="path971" />
      <path
         style="font-style:normal;font-variant:normal;font-weight:normal;font-stretch:normal;letter-spacing:normal;word-spacing:normal;text-anchor:start;fill:#000000;fill-opacity:1;fill-rule:evenodd;stroke:#000000;stroke-width:0;stroke-linecap:butt;stroke-linejoin:miter;stroke-miterlimit:10.43299961;stroke-dasharray:none;stroke-dashoffset:0;stroke-opacity:1"
         inkscape:connector-curvature="0"
         d="m 106.605,114.387 v -0.012 -0.012 -0.015 -0.012 -0.009 -0.012 -0.012 -0.009 -0.012 l -0.003,-0.009 v -0.009 -0.009 -0.009 l -0.003,-0.009 v -0.009 -0.006 l -0.003,-0.009 v -0.006 l -0.003,-0.009 v -0.006 l -0.003,-0.012 -0.006,-0.012 -0.006,-0.009 -0.006,-0.009 -0.006,-0.009 -0.006,-0.009 -0.009,-0.006 -0.009,-0.006 -0.009,-0.006 -0.012,-0.003 -0.012,-0.003 -0.015,-0.006 h -0.006 -0.006 l -0.009,-0.003 h -0.009 l -0.006,-0.003 h -0.009 -0.009 -0.009 -0.009 l -0.012,-0.003 h -0.009 -0.012 -0.009 -0.012 -0.012 -0.012 -0.012 -0.015 -0.012 -0.015 c -0.669,0.66 -1.614,0.669 -2.046,0.669 v 0.375 c 0.252,0 0.942,0 1.512,-0.291 v 5.331 c 0,0.348 0,0.483 -1.044,0.483 h -0.393 v 0.375 c 0.186,-0.009 1.47,-0.042 1.86,-0.042 0.324,0 1.641,0.033 1.872,0.042 v -0.375 h -0.399 c -1.047,0 -1.047,-0.135 -1.047,-0.483 z"
         id="path973" />
    </g>
    <g
       style="stroke-width:5.03644276"
       transform="matrix(0.19855284,0,0,0.19855283,85.482873,100.91159)"
       id="g1066">
      <path
         style="font-style:normal;font-variant:normal;font-weight:normal;font-stretch:normal;letter-spacing:normal;word-spacing:normal;text-anchor:start;fill:#000000;fill-opacity:1;fill-rule:evenodd;stroke:#000000;stroke-width:0;stroke-linecap:butt;stroke-linejoin:miter;stroke-miterlimit:10.43299961;stroke-dasharray:none;stroke-dashoffset:0;stroke-opacity:1"
         inkscape:connector-curvature="0"
         d="m 115.719,113.121 h -0.042 -0.045 l -0.042,0.003 h -0.045 l -0.042,0.003 -0.042,0.006 -0.021,0.003 -0.018,0.003 -0.021,0.006 -0.021,0.003 -0.021,0.006 -0.021,0.006 -0.018,0.006 -0.021,0.006 -0.021,0.009 -0.021,0.009 -0.018,0.009 -0.021,0.012 -0.021,0.012 -0.018,0.012 -0.021,0.015 -0.018,0.012 -0.021,0.018 -0.021,0.015 -0.018,0.018 -0.021,0.021 c -0.24,0.225 -0.267,0.477 -0.267,0.579 0,0.363 0.267,0.525 0.552,0.525 0.432,0 0.84,-0.36 0.84,-0.954 0,-0.732 -0.702,-1.284 -1.767,-1.284 -2.016,0 -4.002,2.136 -4.002,4.242 0,1.344 0.867,2.526 2.418,2.526 2.136,0 3.393,-1.584 3.393,-1.764 0,-0.087 -0.087,-0.195 -0.177,-0.195 -0.075,0 -0.105,0.033 -0.198,0.15 -1.182,1.479 -2.808,1.479 -2.985,1.479 -0.942,0 -1.347,-0.729 -1.347,-1.629 0,-0.609 0.297,-2.064 0.807,-2.988 0.465,-0.852 1.284,-1.494 2.106,-1.494 0.51,0 1.077,0.192 1.287,0.594 z"
         id="path975" />
      <path
         style="font-style:normal;font-variant:normal;font-weight:normal;font-stretch:normal;letter-spacing:normal;word-spacing:normal;text-anchor:start;fill:#000000;fill-opacity:1;fill-rule:evenodd;stroke:#000000;stroke-width:0;stroke-linecap:butt;stroke-linejoin:miter;stroke-miterlimit:10.43299961;stroke-dasharray:none;stroke-dashoffset:0;stroke-opacity:1"
         inkscape:connector-curvature="0"
         d="m 119.781,114.387 v -0.012 -0.012 -0.015 -0.012 -0.009 -0.012 -0.012 -0.009 l -0.003,-0.012 v -0.009 -0.009 -0.009 -0.009 l -0.003,-0.009 v -0.009 l -0.003,-0.006 v -0.009 -0.006 l -0.003,-0.009 v -0.006 l -0.006,-0.012 -0.003,-0.012 -0.006,-0.009 -0.006,-0.009 -0.006,-0.009 -0.006,-0.009 -0.009,-0.006 -0.009,-0.006 -0.012,-0.006 -0.009,-0.003 -0.012,-0.003 -0.015,-0.006 h -0.006 -0.009 l -0.006,-0.003 h -0.009 l -0.009,-0.003 h -0.006 -0.009 -0.009 -0.012 l -0.009,-0.003 h -0.009 -0.012 -0.012 -0.009 -0.012 -0.012 -0.012 -0.015 -0.012 -0.015 c -0.669,0.66 -1.617,0.669 -2.046,0.669 v 0.375 c 0.252,0 0.942,0 1.512,-0.291 v 5.331 c 0,0.348 0,0.483 -1.044,0.483 h -0.393 v 0.375 c 0.186,-0.009 1.47,-0.042 1.86,-0.042 0.324,0 1.641,0.033 1.869,0.042 v -0.375 h -0.399 c -1.044,0 -1.044,-0.135 -1.044,-0.483 z"
         id="path977" />
    </g>
    <g
       style="stroke-width:5.03644276"
       transform="matrix(0.19855284,0,0,0.19855283,102.58332,100.91159)"
       id="g1070">
      <path
         style="font-style:normal;font-variant:normal;font-weight:normal;font-stretch:normal;letter-spacing:normal;word-spacing:normal;text-anchor:start;fill:#000000;fill-opacity:1;fill-rule:evenodd;stroke:#000000;stroke-width:0;stroke-linecap:butt;stroke-linejoin:miter;stroke-miterlimit:10.43299961;stroke-dasharray:none;stroke-dashoffset:0;stroke-opacity:1"
         inkscape:connector-curvature="0"
         d="m 130.686,108.594 v 0 -0.003 0 -0.003 -0.006 -0.003 -0.006 -0.006 l -0.003,-0.006 v -0.006 l -0.003,-0.006 v -0.006 l -0.003,-0.006 -0.003,-0.009 -0.003,-0.006 -0.003,-0.009 -0.006,-0.006 -0.003,-0.009 -0.006,-0.006 -0.006,-0.006 -0.006,-0.009 -0.006,-0.003 -0.003,-0.003 -0.003,-0.003 -0.006,-0.003 -0.003,-0.003 -0.006,-0.003 -0.003,-0.003 -0.006,-0.003 -0.006,-0.003 -0.003,-0.003 h -0.006 l -0.006,-0.003 -0.006,-0.003 h -0.006 l -0.006,-0.003 -0.009,-0.003 h -0.006 -0.009 l -0.006,-0.003 h -0.009 -0.006 l -0.009,-0.003 h -0.009 -0.009 c -0.225,0 -1.644,0.138 -1.899,0.165 -0.12,0.015 -0.21,0.09 -0.21,0.285 0,0.18 0.135,0.18 0.36,0.18 0.717,0 0.747,0.102 0.747,0.252 l -0.042,0.3 -0.9,3.543 c -0.267,-0.552 -0.705,-0.954 -1.374,-0.954 l 0.015,0.327 c 0.969,0 1.179,1.224 1.179,1.311 0,0.096 -0.027,0.183 -0.042,0.258 l -0.75,2.931 c -0.075,0.267 -0.075,0.294 -0.3,0.552 -0.654,0.822 -1.269,1.059 -1.686,1.059 -0.747,0 -0.957,-0.819 -0.957,-1.404 0,-0.747 0.477,-2.583 0.819,-3.273 0.465,-0.882 1.14,-1.434 1.737,-1.434 l -0.015,-0.327 c -1.749,0 -3.6,2.193 -3.6,4.377 0,1.407 0.819,2.391 1.986,2.391 0.297,0 1.047,-0.063 1.941,-1.122 0.123,0.63 0.642,1.122 1.359,1.122 0.525,0 0.867,-0.342 1.107,-0.822 0.255,-0.537 0.45,-1.452 0.45,-1.479 0,-0.15 -0.135,-0.15 -0.177,-0.15 -0.15,0 -0.165,0.06 -0.213,0.27 -0.252,0.972 -0.525,1.851 -1.134,1.851 -0.402,0 -0.45,-0.387 -0.45,-0.687 0,-0.357 0.03,-0.465 0.09,-0.717 z"
         id="path979" />
      <path
         style="font-style:normal;font-variant:normal;font-weight:normal;font-stretch:normal;letter-spacing:normal;word-spacing:normal;text-anchor:start;fill:#000000;fill-opacity:1;fill-rule:evenodd;stroke:#000000;stroke-width:0;stroke-linecap:butt;stroke-linejoin:miter;stroke-miterlimit:10.43299961;stroke-dasharray:none;stroke-dashoffset:0;stroke-opacity:1"
         inkscape:connector-curvature="0"
         d="m 134.253,114.387 v -0.012 -0.012 -0.015 -0.012 -0.009 -0.012 -0.012 -0.009 -0.012 -0.009 l -0.003,-0.009 v -0.009 -0.009 l -0.003,-0.009 v -0.009 -0.006 l -0.003,-0.009 v -0.006 l -0.003,-0.009 v -0.006 l -0.003,-0.012 -0.006,-0.012 -0.006,-0.009 -0.006,-0.009 -0.006,-0.009 -0.006,-0.009 -0.009,-0.006 -0.009,-0.006 -0.009,-0.006 -0.012,-0.003 -0.012,-0.003 -0.015,-0.006 h -0.006 -0.006 l -0.009,-0.003 h -0.009 l -0.006,-0.003 h -0.009 -0.009 -0.009 -0.009 l -0.012,-0.003 h -0.009 -0.012 -0.009 -0.012 -0.012 -0.012 -0.012 -0.012 -0.015 -0.012 c -0.672,0.66 -1.617,0.669 -2.049,0.669 v 0.375 c 0.252,0 0.942,0 1.512,-0.291 v 5.331 c 0,0.348 0,0.483 -1.044,0.483 h -0.393 v 0.375 c 0.186,-0.009 1.47,-0.042 1.86,-0.042 0.324,0 1.641,0.033 1.869,0.042 V 120.66 H 135.3 c -1.047,0 -1.047,-0.135 -1.047,-0.483 z"
         id="path981" />
    </g>
    <path
       style="fill:none;stroke:#000000;stroke-width:0.265;stroke-linecap:butt;stroke-linejoin:miter;stroke-miterlimit:4;stroke-dasharray:none;stroke-opacity:1;marker-end:url(#marker3053)"
       d="m 100.54167,135.60423 c 0,-4.93892 0,-4.93892 0,-4.93892"
       id="path5976-2"
       inkscape:connector-curvature="0" />
    <path
       style="fill:none;stroke:#000000;stroke-width:0.265;stroke-linecap:butt;stroke-linejoin:miter;stroke-miterlimit:4;stroke-dasharray:none;stroke-opacity:1;marker-end:url(#marker3045)"
       d="m 120.38542,135.60419 c 0,-4.93893 0,-4.93893 0,-4.93893"
       id="path5976-0"
       inkscape:connector-curvature="0" />
    <path
       style="fill:none;stroke:#000000;stroke-width:0.26458332px;stroke-linecap:butt;stroke-linejoin:miter;stroke-opacity:1"
       d="m 84.666666,135.60416 v 1.32291"
       id="path1268"
       inkscape:connector-curvature="0" />
    <path
       style="fill:none;stroke:#000000;stroke-width:0.26458332px;stroke-linecap:butt;stroke-linejoin:miter;stroke-opacity:1"
       d="m 88.635417,135.60416 v 1.32291"
       id="path1268-3"
       inkscape:connector-curvature="0" />
    <path
       style="fill:none;stroke:#000000;stroke-width:0.26458332px;stroke-linecap:butt;stroke-linejoin:miter;stroke-opacity:1"
       d="m 92.604167,135.60416 v 1.32291"
       id="path1268-7"
       inkscape:connector-curvature="0" />
    <path
       style="fill:none;stroke:#000000;stroke-width:0.26458332px;stroke-linecap:butt;stroke-linejoin:miter;stroke-opacity:1"
       d="m 96.572917,135.60416 v 1.32291"
       id="path1268-7-5"
       inkscape:connector-curvature="0" />
    <path
       style="fill:none;stroke:#000000;stroke-width:0.26458332px;stroke-linecap:butt;stroke-linejoin:miter;stroke-opacity:1"
       d="m 100.54167,135.60416 v 1.32291"
       id="path1268-7-9"
       inkscape:connector-curvature="0" />
    <path
       style="fill:none;stroke:#000000;stroke-width:0.26458332px;stroke-linecap:butt;stroke-linejoin:miter;stroke-opacity:1"
       d="m 104.51042,135.60416 v 1.32291"
       id="path1268-7-2"
       inkscape:connector-curvature="0" />
    <path
       style="fill:none;stroke:#000000;stroke-width:0.26458332px;stroke-linecap:butt;stroke-linejoin:miter;stroke-opacity:1"
       d="m 108.47917,135.60416 v 1.32291"
       id="path1268-7-28"
       inkscape:connector-curvature="0" />
    <path
       style="fill:none;stroke:#000000;stroke-width:0.26458332px;stroke-linecap:butt;stroke-linejoin:miter;stroke-opacity:1"
       d="m 112.44792,135.60416 v 1.32291"
       id="path1268-7-97"
       inkscape:connector-curvature="0" />
    <path
       style="fill:none;stroke:#000000;stroke-width:0.26458332px;stroke-linecap:butt;stroke-linejoin:miter;stroke-opacity:1"
       d="m 116.41667,135.60416 v 1.32291"
       id="path1268-7-3"
       inkscape:connector-curvature="0" />
    <path
       style="fill:none;stroke:#000000;stroke-width:0.26458332px;stroke-linecap:butt;stroke-linejoin:miter;stroke-opacity:1"
       d="m 120.38542,135.60416 v 1.32291"
       id="path1268-7-3-6"
       inkscape:connector-curvature="0" />
    <path
       style="fill:none;stroke:#000000;stroke-width:0.26458332px;stroke-linecap:butt;stroke-linejoin:miter;stroke-opacity:1"
       d="m 124.35417,135.60416 v 1.32291"
       id="path1268-7-3-1"
       inkscape:connector-curvature="0" />
    <path
       style="fill:none;stroke:#000000;stroke-width:0.265;stroke-linecap:butt;stroke-linejoin:miter;stroke-miterlimit:4;stroke-dasharray:none;stroke-opacity:1;marker-end:url(#marker3049)"
       d="m 116.41667,130.31249 c 0,4.93892 0,4.93892 0,4.93892"
       id="path5976-5-3"
       inkscape:connector-curvature="0" />
    <path
       style="fill:none;stroke:#000000;stroke-width:0.265;stroke-linecap:butt;stroke-linejoin:miter;stroke-miterlimit:4;stroke-dasharray:none;stroke-opacity:1;marker-end:url(#marker3061)"
       d="m 140.22918,135.60424 c 0,-4.93893 0,-4.93893 0,-4.93893"
       id="path5976-0-4"
       inkscape:connector-curvature="0" />
    <path
       style="fill:none;stroke:#000000;stroke-width:0.265;stroke-linecap:butt;stroke-linejoin:miter;stroke-miterlimit:4;stroke-dasharray:none;stroke-opacity:1;marker-end:url(#marker3041)"
       d="m 136.26043,130.31254 c 0,4.93892 0,4.93892 0,4.93892"
       id="path5976-5-3-5"
       inkscape:connector-curvature="0" />
    <path
       style="fill:none;stroke:#000000;stroke-width:0.26458332px;stroke-linecap:butt;stroke-linejoin:miter;stroke-opacity:1"
       d="m 128.32292,135.60416 v 1.32291"
       id="path1268-7-3-2"
       inkscape:connector-curvature="0" />
    <path
       style="fill:none;stroke:#000000;stroke-width:0.26458332px;stroke-linecap:butt;stroke-linejoin:miter;stroke-opacity:1"
       d="m 132.29167,135.60416 v 1.32291"
       id="path1268-7-3-6-0"
       inkscape:connector-curvature="0" />
    <path
       style="fill:none;stroke:#000000;stroke-width:0.26458332px;stroke-linecap:butt;stroke-linejoin:miter;stroke-opacity:1"
       d="m 136.26042,135.60416 v 1.32291"
       id="path1268-7-3-1-6"
       inkscape:connector-curvature="0" />
    <path
       style="fill:none;stroke:#000000;stroke-width:0.26458332px;stroke-linecap:butt;stroke-linejoin:miter;stroke-opacity:1"
       d="m 140.22917,135.60416 v 1.32291"
       id="path1268-7-3-1-6-1"
       inkscape:connector-curvature="0" />
    <path
       style="fill:none;stroke:#000000;stroke-width:0.26458332px;stroke-linecap:butt;stroke-linejoin:miter;stroke-opacity:1"
       d="m 80.697917,135.60416 v 1.32291"
       id="path1268-5"
       inkscape:connector-curvature="0" />
    <path
       style="fill:none;stroke:#000000;stroke-width:0.26458332px;stroke-linecap:butt;stroke-linejoin:miter;stroke-opacity:1"
       d="m 76.729167,135.60416 v 1.32291"
       id="path1268-54"
       inkscape:connector-curvature="0" />
    <path
       style="fill:none;stroke:#000000;stroke-width:0.26458332px;stroke-linecap:butt;stroke-linejoin:miter;stroke-opacity:1"
       d="m 72.760417,134.28124 v 2.64584"
       id="path1268-3-7"
       inkscape:connector-curvature="0" />
    <path
       style="fill:none;stroke:#000000;stroke-width:0.26458332px;stroke-linecap:butt;stroke-linejoin:miter;stroke-opacity:1"
       d="m 80.697917,127.66666 v -2.64583 1.32291 h 19.843753 v -1.32291 2.64583"
       id="path1510"
       inkscape:connector-curvature="0" />
    <path
       style="fill:none;stroke:#000000;stroke-width:0.26458332px;stroke-linecap:butt;stroke-linejoin:miter;stroke-opacity:1"
       d="m 120.38542,127.66666 v -2.64583 1.32291 h 15.87499 v -1.32291 2.64583"
       id="path1512"
       inkscape:connector-curvature="0" />
    <path
       style="fill:none;stroke:#000000;stroke-width:0.26458332px;stroke-linecap:butt;stroke-linejoin:miter;stroke-opacity:1"
       d="m 72.760418,125.02082 v 2.64583 -1.32291 h 7.9375 v -1.32292 2.64583"
       id="path8703-5"
       inkscape:connector-curvature="0" />
    <path
       id="path2486"
       d="m 80.334954,139.30832 0.3157,-0.30557 c 0.45865,-0.40922 0.63735,-0.56946 0.63735,-0.86609 0,-0.33893 -0.26805,-0.5766 -0.6314,-0.5766 -0.33357,0 -0.55396,0.27401 -0.55396,0.53788 0,0.16619 0.14891,0.16619 0.16083,0.16619 0.0477,0 0.15487,-0.0357 0.15487,-0.15726 0,-0.0775 -0.0536,-0.15486 -0.16082,-0.15486 -0.0238,0 -0.0298,0 -0.0357,0.003 0.0655,-0.193 0.22636,-0.30259 0.3991,-0.30259 0.26804,0 0.39908,0.24124 0.39908,0.48426 0,0.23707 -0.14891,0.47176 -0.30974,0.65582 l -0.57183,0.63498 c -0.0357,0.0322 -0.0357,0.0381 -0.0357,0.1096 h 1.10197 l 0.0834,-0.51644 h -0.0715 c -0.0178,0.0894 -0.0358,0.2198 -0.0655,0.26447 -0.0238,0.0233 -0.22039,0.0233 -0.28592,0.0233 z"
       inkscape:connector-curvature="0"
       style="font-style:normal;font-variant:normal;font-weight:normal;font-stretch:normal;letter-spacing:normal;word-spacing:normal;text-anchor:start;fill:#000000;fill-opacity:1;fill-rule:evenodd;stroke:#000000;stroke-width:0;stroke-linecap:butt;stroke-linejoin:miter;stroke-miterlimit:10.43299961;stroke-dasharray:none;stroke-dashoffset:0;stroke-opacity:1" />
    <path
       id="path2490"
       d="m 101.14951,137.70503 v -0.003 -0.003 l 0.006,-0.003 v -0.003 -0.002 l 0.006,-0.002 v -0.003 -0.002 -0.002 l 0.006,-0.002 v -0.002 -0.002 -0.002 -0.002 -0.002 l 0.006,-0.002 v -0.002 -0.003 -0.003 -0.002 -0.003 -0.003 -0.003 -0.003 -0.003 -0.004 -0.004 -0.005 -0.005 -0.005 -0.006 -0.003 -0.003 h -0.72075 c -0.36335,0 -0.3693,-0.0387 -0.38122,-0.0947 h -0.0715 l -0.0953,0.61055 h 0.0715 c 0.006,-0.0477 0.0357,-0.23469 0.0715,-0.26984 0.0238,-0.0179 0.25614,-0.0179 0.29188,-0.0179 h 0.61353 c -0.0298,0.0477 -0.26805,0.37169 -0.33357,0.46938 -0.26209,0.39969 -0.36335,0.81308 -0.36335,1.11567 0,0.0298 0,0.16261 0.137,0.16261 0.13699,0 0.13699,-0.13283 0.13699,-0.16261 v -0.15189 c 0,-0.16262 0.006,-0.32642 0.0358,-0.48665 0.0119,-0.0679 0.0536,-0.32285 0.17869,-0.50691 z"
       inkscape:connector-curvature="0"
       style="font-style:normal;font-variant:normal;font-weight:normal;font-stretch:normal;letter-spacing:normal;word-spacing:normal;text-anchor:start;fill:#000000;fill-opacity:1;fill-rule:evenodd;stroke:#000000;stroke-width:0;stroke-linecap:butt;stroke-linejoin:miter;stroke-miterlimit:10.43299961;stroke-dasharray:none;stroke-dashoffset:0;stroke-opacity:1" />
    <path
       id="path2492"
       d="m 104.68604,138.43058 0.0178,-0.0107 0.0238,-0.0101 0.0178,-0.0113 0.0179,-0.0113 0.0178,-0.0113 0.0179,-0.0119 0.0178,-0.0119 0.0179,-0.0119 0.0119,-0.0125 0.0179,-0.0131 0.0119,-0.0125 0.0179,-0.0137 0.0119,-0.0131 0.0119,-0.0143 0.0179,-0.0137 0.0119,-0.0143 0.0119,-0.0143 0.006,-0.0149 0.0119,-0.0149 0.0119,-0.0155 0.006,-0.0155 0.0119,-0.0161 0.006,-0.0161 0.006,-0.0161 0.006,-0.0167 0.006,-0.0167 0.006,-0.0166 v -0.0173 l 0.006,-0.0173 v -0.0178 -0.0179 -0.0185 c 0,-0.27341 -0.26209,-0.44317 -0.53014,-0.44317 l -0.006,0.0744 c 0.22039,0 0.40505,0.15486 0.40505,0.3687 0,0.16858 -0.11318,0.31094 -0.29187,0.41518 l -0.36932,-0.23707 c -0.13699,-0.0893 -0.14891,-0.19001 -0.14891,-0.24065 0,-0.18108 0.19657,-0.30616 0.40505,-0.30616 l 0.006,-0.0744 c -0.29783,0 -0.54205,0.21979 -0.54205,0.49618 0,0.053 0.006,0.18704 0.13105,0.32702 0.0358,0.0351 0.14296,0.1096 0.22039,0.15964 l 0.0655,0.0446 0.3693,0.23112 c 0.0775,0.0566 0.2204,0.14593 0.2204,0.32642 0,0.21979 -0.2204,0.37407 -0.46462,0.37407 -0.25613,0 -0.47056,-0.18406 -0.47056,-0.42947 0,-0.17274 0.0953,-0.36216 0.34548,-0.50214 v 0 l -0.0655,-0.0446 c -0.17274,0.0858 -0.42887,0.25256 -0.42887,0.54681 0,0.31451 0.30379,0.51226 0.61353,0.51226 0.33356,0 0.61948,-0.24659 0.61948,-0.56349 0,-0.10662 -0.0357,-0.24064 -0.14893,-0.36514 -0.0536,-0.0626 -0.10125,-0.0923 -0.29187,-0.21027 z"
       inkscape:connector-curvature="0"
       style="font-style:normal;font-variant:normal;font-weight:normal;font-stretch:normal;letter-spacing:normal;word-spacing:normal;text-anchor:start;fill:#000000;fill-opacity:1;fill-rule:evenodd;stroke:#000000;stroke-width:0;stroke-linecap:butt;stroke-linejoin:miter;stroke-miterlimit:10.43299961;stroke-dasharray:none;stroke-dashoffset:0;stroke-opacity:1" />
    <g
       id="g2625"
       transform="matrix(0.79696296,0,0,0.79696296,1.0243532,57.362996)"
       style="stroke-width:1.25476348">
      <path
         style="font-style:normal;font-variant:normal;font-weight:normal;font-stretch:normal;letter-spacing:normal;word-spacing:normal;text-anchor:start;fill:#000000;fill-opacity:1;fill-rule:evenodd;stroke:#000000;stroke-width:0;stroke-linecap:butt;stroke-linejoin:miter;stroke-miterlimit:10.43299961;stroke-dasharray:none;stroke-dashoffset:0;stroke-opacity:1"
         inkscape:connector-curvature="0"
         d="m 138.94258,100.68476 v -0.004 -0.004 -0.004 -0.004 -0.004 -0.004 -0.003 -0.004 -0.003 -0.003 -0.003 -0.003 -0.003 -0.002 -0.003 -0.002 -0.005 -0.004 -0.004 l -0.007,-0.004 v -0.004 -0.003 -0.003 -0.002 l -0.007,-0.002 v -0.002 -0.002 l -0.007,-0.001 v -0.001 -7.5e-4 l -0.007,-7.5e-4 v 0 -7.4e-4 -7.5e-4 h -0.007 v -7.5e-4 0 l -0.007,-7.5e-4 v 0 0 l -0.007,-7.4e-4 v 0 h -0.007 v 0 0 h -0.007 v -7.5e-4 h -0.007 v 0 h -0.007 v 0 c -0.2317,0.23842 -0.56056,0.23842 -0.68014,0.23842 v 0.11585 c 0.0747,0 0.29149,0 0.48581,-0.0972 v 1.92907 c 0,0.13453 -0.007,0.17863 -0.3438,0.17863 h -0.11959 v 0.11585 c 0.12706,-0.012 0.45592,-0.012 0.6054,-0.012 0.14948,0 0.47087,0 0.59793,0.012 v -0.11585 h -0.11211 c -0.33634,0 -0.35128,-0.0404 -0.35128,-0.17863 z"
         id="path2494" />
      <path
         style="font-style:normal;font-variant:normal;font-weight:normal;font-stretch:normal;letter-spacing:normal;word-spacing:normal;text-anchor:start;fill:#000000;fill-opacity:1;fill-rule:evenodd;stroke:#000000;stroke-width:0;stroke-linecap:butt;stroke-linejoin:miter;stroke-miterlimit:10.43299961;stroke-dasharray:none;stroke-dashoffset:0;stroke-opacity:1"
         inkscape:connector-curvature="0"
         d="m 141.43145,101.87688 -0.007,-0.0553 v -0.056 -0.0561 -0.0553 l -0.007,-0.056 v -0.0553 l -0.007,-0.0553 -0.007,-0.0546 -0.007,-0.0546 -0.007,-0.0546 -0.0149,-0.0538 -0.0149,-0.0538 -0.0149,-0.0538 -0.0224,-0.0523 -0.0149,-0.0523 -0.0149,-0.0262 -0.007,-0.0254 c -0.1719,-0.35876 -0.47834,-0.41855 -0.6353,-0.41855 -0.22422,0 -0.49329,0.0972 -0.65024,0.44396 -0.11959,0.25711 -0.13454,0.54785 -0.13454,0.84532 0,0.27953 0.0149,0.61437 0.16443,0.8969 0.16443,0.3012 0.4335,0.37594 0.61288,0.37594 v -0.0815 c -0.14201,0 -0.36623,-0.0934 -0.4335,-0.45069 -0.0374,-0.22273 -0.0374,-0.56505 -0.0374,-0.78628 0,-0.23768 0,-0.48283 0.0299,-0.68388 0.0673,-0.44396 0.35128,-0.47685 0.44097,-0.47685 0.12706,0 0.3737,0.0665 0.44097,0.43574 0.0374,0.20778 0.0374,0.4918 0.0374,0.72499 0,0.28028 0,0.5329 -0.0374,0.77133 -0.0598,0.35352 -0.26907,0.46564 -0.44097,0.46564 v 0 0.0815 c 0.2018,0 0.48582,-0.0777 0.65025,-0.432 0.11958,-0.25636 0.142,-0.54636 0.142,-0.84084 z"
         id="path2496" />
    </g>
    <g
       id="g2629"
       transform="matrix(0.79696296,0,0,0.79696296,6.0087588,57.395026)"
       style="stroke-width:1.25476348">
      <path
         style="font-style:normal;font-variant:normal;font-weight:normal;font-stretch:normal;letter-spacing:normal;word-spacing:normal;text-anchor:start;fill:#000000;fill-opacity:1;fill-rule:evenodd;stroke:#000000;stroke-width:0;stroke-linecap:butt;stroke-linejoin:miter;stroke-miterlimit:10.43299961;stroke-dasharray:none;stroke-dashoffset:0;stroke-opacity:1"
         inkscape:connector-curvature="0"
         d="m 142.67216,100.68476 v -0.004 -0.004 -0.004 -0.004 -0.004 -0.004 -0.003 -0.004 -0.003 -0.003 -0.003 -0.003 -0.003 -0.002 -0.003 -0.002 -0.005 -0.004 -0.004 -0.004 l -0.007,-0.004 v -0.003 -0.003 -0.002 l -0.007,-0.002 v -0.002 -0.002 l -0.007,-0.001 v -0.001 -7.5e-4 l -0.007,-7.5e-4 v 0 -7.4e-4 -7.5e-4 h -0.007 v -7.5e-4 0 l -0.007,-7.5e-4 v 0 0 l -0.007,-7.4e-4 v 0 0 h -0.007 v 0 h -0.007 v -7.5e-4 h -0.007 v 0 h -0.007 v 0 c -0.2317,0.23842 -0.56056,0.23842 -0.68014,0.23842 v 0.11585 c 0.0747,0 0.29896,0 0.48581,-0.0972 v 1.92907 c 0,0.13453 -0.007,0.17863 -0.34381,0.17863 h -0.11958 v 0.11585 c 0.13453,-0.012 0.45592,-0.012 0.6054,-0.012 0.14948,0 0.47087,0 0.6054,0.012 v -0.11585 h -0.11958 c -0.33634,0 -0.35128,-0.0404 -0.35128,-0.17863 z"
         id="path2498" />
      <path
         style="font-style:normal;font-variant:normal;font-weight:normal;font-stretch:normal;letter-spacing:normal;word-spacing:normal;text-anchor:start;fill:#000000;fill-opacity:1;fill-rule:evenodd;stroke:#000000;stroke-width:0;stroke-linecap:butt;stroke-linejoin:miter;stroke-miterlimit:10.43299961;stroke-dasharray:none;stroke-dashoffset:0;stroke-opacity:1"
         inkscape:connector-curvature="0"
         d="m 143.92033,102.78125 0.38865,-0.38342 c 0.58298,-0.51347 0.80721,-0.71453 0.80721,-1.08674 0,-0.42527 -0.33634,-0.72349 -0.78478,-0.72349 -0.42603,0 -0.70257,0.34381 -0.70257,0.67491 0,0.20853 0.18685,0.20853 0.2018,0.20853 0.0598,0 0.19433,-0.0448 0.19433,-0.19732 0,-0.0972 -0.0673,-0.19432 -0.2018,-0.19432 -0.0299,0 -0.0374,0 -0.0448,0.004 0.0822,-0.24216 0.28402,-0.37968 0.50077,-0.37968 0.33633,0 0.50076,0.3027 0.50076,0.60764 0,0.29747 -0.18685,0.59195 -0.39612,0.8229 l -0.71004,0.79674 c -0.0448,0.0404 -0.0448,0.0478 -0.0448,0.13753 h 1.38271 l 0.10464,-0.64801 h -0.0897 c -0.0224,0.11211 -0.0448,0.2758 -0.0822,0.33185 -0.0299,0.0292 -0.27654,0.0292 -0.35875,0.0292 z"
         id="path2500" />
    </g>
    <g
       id="g2633"
       transform="matrix(0.79696296,0,0,0.79696296,18.899559,57.36306)"
       style="stroke-width:1.25476348">
      <path
         style="font-style:normal;font-variant:normal;font-weight:normal;font-stretch:normal;letter-spacing:normal;word-spacing:normal;text-anchor:start;fill:#000000;fill-opacity:1;fill-rule:evenodd;stroke:#000000;stroke-width:0;stroke-linecap:butt;stroke-linejoin:miter;stroke-miterlimit:10.43299961;stroke-dasharray:none;stroke-dashoffset:0;stroke-opacity:1"
         inkscape:connector-curvature="0"
         d="m 146.40173,100.68476 v -0.004 -0.004 -0.004 -0.004 -0.004 -0.004 -0.003 -0.004 -0.003 -0.003 -0.003 -0.003 -0.003 -0.002 -0.003 -0.002 -0.005 -0.004 -0.004 -0.004 -0.004 l -0.007,-0.003 v -0.003 -0.002 -0.002 l -0.007,-0.002 v -0.002 -0.001 l -0.007,-0.001 v -7.5e-4 -7.5e-4 h -0.007 v -7.4e-4 -7.5e-4 0 l -0.007,-7.5e-4 v 0 -7.5e-4 h -0.007 v 0 -7.4e-4 h -0.007 v 0 h -0.007 v 0 h -0.007 v -7.5e-4 0 h -0.007 v 0 h -0.007 c -0.2317,0.23842 -0.56056,0.23842 -0.68015,0.23842 v 0.11585 c 0.0747,0 0.29897,0 0.4933,-0.0972 v 1.92907 c 0,0.13453 -0.0149,0.17863 -0.35129,0.17863 h -0.11958 v 0.11585 c 0.13453,-0.012 0.45592,-0.012 0.6054,-0.012 0.14948,0 0.47087,0 0.6054,0.012 v -0.11585 h -0.11958 c -0.33634,0 -0.35129,-0.0404 -0.35129,-0.17863 z"
         id="path2502" />
      <path
         style="font-style:normal;font-variant:normal;font-weight:normal;font-stretch:normal;letter-spacing:normal;word-spacing:normal;text-anchor:start;fill:#000000;fill-opacity:1;fill-rule:evenodd;stroke:#000000;stroke-width:0;stroke-linecap:butt;stroke-linejoin:miter;stroke-miterlimit:10.43299961;stroke-dasharray:none;stroke-dashoffset:0;stroke-opacity:1"
         inkscape:connector-curvature="0"
         d="m 147.66486,101.84699 v -0.089 c 0,-0.94248 0.46339,-1.07701 0.65024,-1.07701 0.0897,0 0.24665,0.0224 0.32887,0.14948 -0.0523,0 -0.20181,0 -0.20181,0.16742 0,0.1151 0.0897,0.17116 0.17191,0.17116 0.0598,0 0.1719,-0.0336 0.1719,-0.17864 0,-0.22422 -0.16443,-0.40285 -0.47087,-0.40285 -0.47834,0 -0.9791,0.48133 -0.9791,1.30348 0,0.99481 0.42602,1.25864 0.7773,1.25864 0.41108,0 0.76236,-0.34978 0.76236,-0.84083 0,-0.47237 -0.32886,-0.83112 -0.74741,-0.83112 v 0.0867 c 0.0598,0 0.2317,0 0.34381,0.23095 0.0673,0.13677 0.0673,0.32661 0.0673,0.50898 0,0.17863 0,0.36549 -0.0598,0.50002 -0.11211,0.22273 -0.28401,0.24141 -0.36623,0.24141 v 0 c -0.23917,0 -0.35128,-0.22273 -0.3737,-0.27878 -0.0673,-0.17489 -0.0673,-0.47311 -0.0673,-0.54038 0,-0.28999 0.11959,-0.6622 0.45592,-0.6622 v -0.0867 c -0.24664,0 -0.38865,0.19059 -0.46339,0.36922 z"
         id="path2504" />
    </g>
    <path
       id="path3483-2"
       d="m 73.363985,138.55489 v -0.0426 l -5.76e-4,-0.0431 -0.0011,-0.0432 -0.0023,-0.0426 -0.0023,-0.0431 -0.0035,-0.0426 -0.0046,-0.0426 -0.0052,-0.042 -0.0069,-0.042 -0.0081,-0.042 -0.0092,-0.0414 -0.01093,-0.0414 -0.01208,-0.0414 -0.01438,-0.0403 -0.01611,-0.0403 -0.0086,-0.0201 -0.0092,-0.0196 c -0.131185,-0.27618 -0.366513,-0.32221 -0.487342,-0.32221 -0.171461,0 -0.380898,0.0748 -0.498849,0.34177 -0.09148,0.19793 -0.105869,0.42175 -0.105869,0.65075 0,0.21519 0.01151,0.47296 0.129459,0.69045 0.12313,0.23188 0.332566,0.28941 0.472958,0.28941 v -0.0627 c -0.111623,0 -0.281358,-0.0719 -0.333142,-0.34695 -0.03107,-0.17146 -0.03107,-0.43499 -0.03107,-0.6053 0,-0.18296 0,-0.37169 0.02302,-0.52646 0.05409,-0.34178 0.269275,-0.36709 0.341197,-0.36709 0.09436,0 0.283659,0.0512 0.337744,0.33544 0.02877,0.15996 0.02877,0.3786 0.02877,0.55811 0,0.21577 0,0.41025 -0.03165,0.59379 -0.04315,0.27215 -0.206559,0.35846 -0.334867,0.35846 v 0 0.0627 c 0.1542,0 0.371691,-0.0598 0.498849,-0.33256 0.09148,-0.19736 0.105869,-0.4206 0.105869,-0.6473 z"
       inkscape:connector-curvature="0"
       style="font-style:normal;font-variant:normal;font-weight:normal;font-stretch:normal;letter-spacing:normal;word-spacing:normal;text-anchor:start;fill:#000000;fill-opacity:1;fill-rule:evenodd;stroke:#000000;stroke-width:0;stroke-linecap:butt;stroke-linejoin:miter;stroke-miterlimit:10.43299961;stroke-dasharray:none;stroke-dashoffset:0;stroke-opacity:1" />
  </g>
</svg>
